<svg xmlns="http://www.w3.org/2000/svg" xmlns:xlink="http://www.w3.org/1999/xlink" width="1000" zoomAndPan="magnify" viewBox="0 0 750 749.999995" height="1000" preserveAspectRatio="xMidYMid meet" version="1.0"><defs><g/><clipPath id="9b2b9d84b5"><path d="M 3 217.03125 L 747 217.03125 L 747 532.78125 L 3 532.78125 Z M 3 217.03125 " clip-rule="nonzero"/></clipPath></defs><g clip-path="url(#9b2b9d84b5)"><path fill="#230738" d="M 100.414062 532.96875 C 97.289062 532.96875 94.019531 532.820312 90.746094 532.523438 C 44.929688 528.058594 8.339844 491.765625 3.578125 445.953125 C 0.902344 419.921875 8.339844 394.785156 24.40625 375 C 8.488281 355.214844 1.050781 330.078125 3.730469 304.046875 C 8.339844 258.234375 45.082031 221.941406 90.894531 217.476562 C 94.019531 217.179688 97.289062 217.03125 100.414062 217.03125 C 126.742188 217.03125 151.433594 227.445312 169.878906 246.1875 C 192.191406 268.945312 220.453125 281.4375 249.753906 281.4375 L 500.246094 281.4375 C 529.546875 281.4375 557.957031 268.945312 580.121094 246.1875 C 598.566406 227.445312 623.257812 217.03125 649.585938 217.03125 C 652.710938 217.03125 655.980469 217.179688 659.253906 217.476562 C 705.070312 221.941406 741.660156 258.234375 746.417969 304.046875 C 749.097656 330.078125 741.660156 355.214844 725.59375 375 C 741.511719 394.785156 749.097656 419.921875 746.417969 445.953125 C 741.660156 491.765625 705.070312 528.058594 659.253906 532.523438 C 656.128906 532.820312 652.859375 532.96875 649.585938 532.96875 C 623.257812 532.96875 598.566406 522.554688 580.121094 503.8125 C 557.808594 481.054688 529.546875 468.5625 500.246094 468.5625 L 249.753906 468.5625 C 220.453125 468.5625 192.042969 481.054688 169.878906 503.8125 C 151.433594 522.554688 126.742188 532.96875 100.414062 532.96875 Z M 100.414062 532.96875 " fill-opacity="1" fill-rule="nonzero"/></g><path fill="#ffffff" d="M 703.730469 375 C 722.324219 358.339844 733.332031 333.203125 730.503906 305.683594 C 726.636719 267.753906 695.546875 236.964844 657.617188 233.246094 C 631.585938 230.714844 607.9375 240.382812 591.425781 257.339844 C 567.179688 282.035156 534.902344 297.355469 500.246094 297.355469 C 500.246094 297.355469 404.601562 297.355469 372.621094 297.355469 C 341.976562 297.355469 249.753906 297.355469 249.753906 297.355469 C 215.097656 297.355469 182.820312 282.183594 158.574219 257.339844 C 142.0625 240.382812 118.261719 230.714844 92.382812 233.246094 C 54.300781 236.964844 23.363281 267.753906 19.496094 305.683594 C 16.519531 333.203125 27.527344 358.339844 46.269531 375 C 27.675781 391.660156 16.667969 416.796875 19.496094 444.316406 C 23.363281 482.246094 54.453125 513.035156 92.382812 516.753906 C 118.414062 519.285156 142.0625 509.617188 158.574219 492.660156 C 182.820312 467.964844 215.097656 452.644531 249.753906 452.644531 C 249.753906 452.644531 341.828125 452.644531 372.472656 452.644531 C 404.453125 452.644531 500.097656 452.644531 500.097656 452.644531 C 534.753906 452.644531 567.03125 467.816406 591.277344 492.660156 C 607.789062 509.464844 631.585938 519.136719 657.46875 516.753906 C 695.546875 513.035156 726.488281 482.246094 730.355469 444.316406 C 733.480469 416.796875 722.472656 391.660156 703.730469 375 Z M 703.730469 375 " fill-opacity="1" fill-rule="nonzero"/><path fill="#f5ce02" d="M 715.777344 351.050781 C 717.265625 352.390625 718.605469 353.730469 719.941406 355.066406 C 723.066406 349.714844 725.59375 344.0625 727.378906 337.960938 C 723.960938 342.871094 720.089844 347.183594 715.777344 351.050781 Z M 715.777344 351.050781 " fill-opacity="1" fill-rule="nonzero"/><path fill="#f5ce02" d="M 669.667969 492.808594 C 643.636719 495.335938 619.984375 485.667969 603.472656 468.710938 C 579.230469 444.019531 546.949219 428.699219 512.292969 428.699219 C 512.292969 428.699219 416.5 428.699219 384.667969 428.699219 C 354.027344 428.699219 261.953125 428.699219 261.953125 428.699219 C 227.292969 428.699219 195.015625 443.871094 170.769531 468.710938 C 154.261719 485.519531 130.460938 495.1875 104.578125 492.808594 C 66.5 489.089844 35.558594 458.296875 31.691406 420.367188 C 30.503906 409.0625 31.691406 398.054688 34.816406 387.941406 C 23.511719 403.410156 17.5625 423.195312 19.644531 444.316406 C 23.511719 482.246094 54.601562 513.035156 92.53125 516.753906 C 118.5625 519.285156 142.210938 509.617188 158.722656 492.660156 C 182.96875 467.964844 215.246094 452.644531 249.902344 452.644531 C 249.902344 452.644531 341.976562 452.644531 372.621094 452.644531 C 404.601562 452.644531 500.246094 452.644531 500.246094 452.644531 C 534.902344 452.644531 567.179688 467.816406 591.425781 492.660156 C 607.9375 509.464844 631.738281 519.136719 657.617188 516.753906 C 690.492188 513.632812 718.007812 490.277344 727.378906 459.488281 C 714.140625 477.785156 693.167969 490.574219 669.667969 492.808594 Z M 669.667969 492.808594 " fill-opacity="1" fill-rule="nonzero"/><g fill="#220f38" fill-opacity="1"><g transform="translate(164.759759, 398.250001)"><g><path d="M 10.4375 0 C 8.851562 0 7.640625 -0.414062 6.796875 -1.25 C 5.960938 -2.09375 5.546875 -3.304688 5.546875 -4.890625 L 5.546875 -45.859375 C 5.546875 -47.441406 5.960938 -48.65625 6.796875 -49.5 C 7.640625 -50.34375 8.851562 -50.765625 10.4375 -50.765625 L 27.71875 -50.765625 C 31.269531 -50.765625 34.289062 -50.234375 36.78125 -49.171875 C 39.28125 -48.117188 41.191406 -46.609375 42.515625 -44.640625 C 43.835938 -42.671875 44.5 -40.316406 44.5 -37.578125 C 44.5 -34.503906 43.609375 -31.910156 41.828125 -29.796875 C 40.054688 -27.691406 37.632812 -26.28125 34.5625 -25.5625 L 34.5625 -26.640625 C 38.113281 -26.109375 40.875 -24.765625 42.84375 -22.609375 C 44.8125 -20.453125 45.796875 -17.644531 45.796875 -14.1875 C 45.796875 -9.675781 44.269531 -6.179688 41.21875 -3.703125 C 38.164062 -1.234375 33.929688 0 28.515625 0 Z M 14.40625 -6.984375 L 27.359375 -6.984375 C 30.617188 -6.984375 33.015625 -7.617188 34.546875 -8.890625 C 36.085938 -10.160156 36.859375 -12.066406 36.859375 -14.609375 C 36.859375 -17.203125 36.085938 -19.125 34.546875 -20.375 C 33.015625 -21.625 30.617188 -22.25 27.359375 -22.25 L 14.40625 -22.25 Z M 14.40625 -29.234375 L 26.140625 -29.234375 C 29.304688 -29.234375 31.664062 -29.84375 33.21875 -31.0625 C 34.78125 -32.289062 35.5625 -34.101562 35.5625 -36.5 C 35.5625 -38.90625 34.78125 -40.71875 33.21875 -41.9375 C 31.664062 -43.164062 29.304688 -43.78125 26.140625 -43.78125 L 14.40625 -43.78125 Z M 14.40625 -29.234375 "/></g></g></g><g fill="#220f38" fill-opacity="1"><g transform="translate(214.295738, 398.250001)"><g><path d="M 28.296875 0.71875 C 23.398438 0.71875 19.113281 -0.359375 15.4375 -2.515625 C 11.769531 -4.679688 8.925781 -7.71875 6.90625 -11.625 C 4.894531 -15.539062 3.890625 -20.140625 3.890625 -25.421875 C 3.890625 -29.398438 4.460938 -32.984375 5.609375 -36.171875 C 6.765625 -39.367188 8.410156 -42.109375 10.546875 -44.390625 C 12.679688 -46.671875 15.25 -48.421875 18.25 -49.640625 C 21.25 -50.867188 24.597656 -51.484375 28.296875 -51.484375 C 33.242188 -51.484375 37.539062 -50.414062 41.1875 -48.28125 C 44.832031 -46.144531 47.660156 -43.128906 49.671875 -39.234375 C 51.691406 -35.347656 52.703125 -30.765625 52.703125 -25.484375 C 52.703125 -21.503906 52.125 -17.90625 50.96875 -14.6875 C 49.820312 -11.46875 48.179688 -8.707031 46.046875 -6.40625 C 43.910156 -4.101562 41.34375 -2.335938 38.34375 -1.109375 C 35.34375 0.109375 31.992188 0.71875 28.296875 0.71875 Z M 28.296875 -7.203125 C 31.410156 -7.203125 34.0625 -7.921875 36.25 -9.359375 C 38.4375 -10.796875 40.117188 -12.882812 41.296875 -15.625 C 42.472656 -18.363281 43.0625 -21.628906 43.0625 -25.421875 C 43.0625 -31.179688 41.773438 -35.644531 39.203125 -38.8125 C 36.640625 -41.976562 33.003906 -43.5625 28.296875 -43.5625 C 25.222656 -43.5625 22.582031 -42.851562 20.375 -41.4375 C 18.164062 -40.019531 16.472656 -37.953125 15.296875 -35.234375 C 14.117188 -32.523438 13.53125 -29.253906 13.53125 -25.421875 C 13.53125 -19.703125 14.828125 -15.234375 17.421875 -12.015625 C 20.015625 -8.804688 23.640625 -7.203125 28.296875 -7.203125 Z M 28.296875 -7.203125 "/></g></g></g><g fill="#220f38" fill-opacity="1"><g transform="translate(270.815712, 398.250001)"><g><path d="M 28.296875 0.71875 C 23.398438 0.71875 19.113281 -0.359375 15.4375 -2.515625 C 11.769531 -4.679688 8.925781 -7.71875 6.90625 -11.625 C 4.894531 -15.539062 3.890625 -20.140625 3.890625 -25.421875 C 3.890625 -29.398438 4.460938 -32.984375 5.609375 -36.171875 C 6.765625 -39.367188 8.410156 -42.109375 10.546875 -44.390625 C 12.679688 -46.671875 15.25 -48.421875 18.25 -49.640625 C 21.25 -50.867188 24.597656 -51.484375 28.296875 -51.484375 C 33.242188 -51.484375 37.539062 -50.414062 41.1875 -48.28125 C 44.832031 -46.144531 47.660156 -43.128906 49.671875 -39.234375 C 51.691406 -35.347656 52.703125 -30.765625 52.703125 -25.484375 C 52.703125 -21.503906 52.125 -17.90625 50.96875 -14.6875 C 49.820312 -11.46875 48.179688 -8.707031 46.046875 -6.40625 C 43.910156 -4.101562 41.34375 -2.335938 38.34375 -1.109375 C 35.34375 0.109375 31.992188 0.71875 28.296875 0.71875 Z M 28.296875 -7.203125 C 31.410156 -7.203125 34.0625 -7.921875 36.25 -9.359375 C 38.4375 -10.796875 40.117188 -12.882812 41.296875 -15.625 C 42.472656 -18.363281 43.0625 -21.628906 43.0625 -25.421875 C 43.0625 -31.179688 41.773438 -35.644531 39.203125 -38.8125 C 36.640625 -41.976562 33.003906 -43.5625 28.296875 -43.5625 C 25.222656 -43.5625 22.582031 -42.851562 20.375 -41.4375 C 18.164062 -40.019531 16.472656 -37.953125 15.296875 -35.234375 C 14.117188 -32.523438 13.53125 -29.253906 13.53125 -25.421875 C 13.53125 -19.703125 14.828125 -15.234375 17.421875 -12.015625 C 20.015625 -8.804688 23.640625 -7.203125 28.296875 -7.203125 Z M 28.296875 -7.203125 "/></g></g></g><g fill="#220f38" fill-opacity="1"><g transform="translate(327.335687, 398.250001)"><g><path d="M 10.15625 0.578125 C 8.664062 0.578125 7.523438 0.160156 6.734375 -0.671875 C 5.941406 -1.515625 5.546875 -2.679688 5.546875 -4.171875 L 5.546875 -46.65625 C 5.546875 -48.1875 5.941406 -49.347656 6.734375 -50.140625 C 7.523438 -50.941406 8.664062 -51.34375 10.15625 -51.34375 C 11.644531 -51.34375 12.785156 -50.941406 13.578125 -50.140625 C 14.367188 -49.347656 14.765625 -48.1875 14.765625 -46.65625 L 14.765625 -28.296875 L 14.90625 -28.296875 L 35.5625 -49.03125 C 36.332031 -49.800781 37.101562 -50.378906 37.875 -50.765625 C 38.644531 -51.148438 39.507812 -51.34375 40.46875 -51.34375 C 41.851562 -51.34375 42.847656 -50.976562 43.453125 -50.25 C 44.054688 -49.53125 44.296875 -48.691406 44.171875 -47.734375 C 44.046875 -46.773438 43.578125 -45.890625 42.765625 -45.078125 L 21.75 -24.265625 L 21.8125 -28.4375 L 43.78125 -6.125 C 44.78125 -5.164062 45.304688 -4.15625 45.359375 -3.09375 C 45.410156 -2.039062 45.085938 -1.164062 44.390625 -0.46875 C 43.691406 0.226562 42.671875 0.578125 41.328125 0.578125 C 40.171875 0.578125 39.242188 0.335938 38.546875 -0.140625 C 37.859375 -0.617188 37.054688 -1.316406 36.140625 -2.234375 L 14.90625 -23.46875 L 14.765625 -23.46875 L 14.765625 -4.171875 C 14.765625 -2.679688 14.378906 -1.515625 13.609375 -0.671875 C 12.835938 0.160156 11.6875 0.578125 10.15625 0.578125 Z M 10.15625 0.578125 "/></g></g></g><g fill="#220f38" fill-opacity="1"><g transform="translate(375.215659, 398.250001)"><g/></g></g><g fill="#220f38" fill-opacity="1"><g transform="translate(394.727651, 398.250001)"><g><path d="M 9.859375 0.578125 C 8.472656 0.578125 7.40625 0.191406 6.65625 -0.578125 C 5.914062 -1.347656 5.546875 -2.453125 5.546875 -3.890625 L 5.546875 -46.734375 C 5.546875 -48.210938 5.914062 -49.347656 6.65625 -50.140625 C 7.40625 -50.941406 8.378906 -51.34375 9.578125 -51.34375 C 10.679688 -51.34375 11.507812 -51.132812 12.0625 -50.71875 C 12.613281 -50.3125 13.273438 -49.628906 14.046875 -48.671875 L 41.609375 -12.890625 L 39.75 -12.890625 L 39.75 -46.9375 C 39.75 -48.332031 40.117188 -49.414062 40.859375 -50.1875 C 41.597656 -50.957031 42.664062 -51.34375 44.0625 -51.34375 C 45.457031 -51.34375 46.515625 -50.957031 47.234375 -50.1875 C 47.953125 -49.414062 48.3125 -48.332031 48.3125 -46.9375 L 48.3125 -3.75 C 48.3125 -2.40625 47.972656 -1.347656 47.296875 -0.578125 C 46.628906 0.191406 45.71875 0.578125 44.5625 0.578125 C 43.457031 0.578125 42.582031 0.363281 41.9375 -0.0625 C 41.289062 -0.5 40.582031 -1.195312 39.8125 -2.15625 L 12.3125 -37.9375 L 14.109375 -37.9375 L 14.109375 -3.890625 C 14.109375 -2.453125 13.75 -1.347656 13.03125 -0.578125 C 12.3125 0.191406 11.253906 0.578125 9.859375 0.578125 Z M 9.859375 0.578125 "/></g></g></g><g fill="#220f38" fill-opacity="1"><g transform="translate(448.583614, 398.250001)"><g><path d="M 28.296875 0.71875 C 23.398438 0.71875 19.113281 -0.359375 15.4375 -2.515625 C 11.769531 -4.679688 8.925781 -7.71875 6.90625 -11.625 C 4.894531 -15.539062 3.890625 -20.140625 3.890625 -25.421875 C 3.890625 -29.398438 4.460938 -32.984375 5.609375 -36.171875 C 6.765625 -39.367188 8.410156 -42.109375 10.546875 -44.390625 C 12.679688 -46.671875 15.25 -48.421875 18.25 -49.640625 C 21.25 -50.867188 24.597656 -51.484375 28.296875 -51.484375 C 33.242188 -51.484375 37.539062 -50.414062 41.1875 -48.28125 C 44.832031 -46.144531 47.660156 -43.128906 49.671875 -39.234375 C 51.691406 -35.347656 52.703125 -30.765625 52.703125 -25.484375 C 52.703125 -21.503906 52.125 -17.90625 50.96875 -14.6875 C 49.820312 -11.46875 48.179688 -8.707031 46.046875 -6.40625 C 43.910156 -4.101562 41.34375 -2.335938 38.34375 -1.109375 C 35.34375 0.109375 31.992188 0.71875 28.296875 0.71875 Z M 28.296875 -7.203125 C 31.410156 -7.203125 34.0625 -7.921875 36.25 -9.359375 C 38.4375 -10.796875 40.117188 -12.882812 41.296875 -15.625 C 42.472656 -18.363281 43.0625 -21.628906 43.0625 -25.421875 C 43.0625 -31.179688 41.773438 -35.644531 39.203125 -38.8125 C 36.640625 -41.976562 33.003906 -43.5625 28.296875 -43.5625 C 25.222656 -43.5625 22.582031 -42.851562 20.375 -41.4375 C 18.164062 -40.019531 16.472656 -37.953125 15.296875 -35.234375 C 14.117188 -32.523438 13.53125 -29.253906 13.53125 -25.421875 C 13.53125 -19.703125 14.828125 -15.234375 17.421875 -12.015625 C 20.015625 -8.804688 23.640625 -7.203125 28.296875 -7.203125 Z M 28.296875 -7.203125 "/></g></g></g><g fill="#220f38" fill-opacity="1"><g transform="translate(505.1036, 398.250001)"><g><path d="M 23.40625 0.578125 C 22.101562 0.578125 21.054688 0.265625 20.265625 -0.359375 C 19.472656 -0.984375 18.835938 -1.96875 18.359375 -3.3125 L 3.3125 -45.859375 C 2.78125 -47.398438 2.882812 -48.695312 3.625 -49.75 C 4.375 -50.8125 5.640625 -51.34375 7.421875 -51.34375 C 8.710938 -51.34375 9.71875 -51.039062 10.4375 -50.4375 C 11.15625 -49.832031 11.734375 -48.882812 12.171875 -47.59375 L 25.125 -9.140625 L 22.25 -9.140625 L 35.78125 -47.515625 C 36.257812 -48.816406 36.859375 -49.78125 37.578125 -50.40625 C 38.296875 -51.03125 39.234375 -51.34375 40.390625 -51.34375 C 41.546875 -51.34375 42.457031 -51.03125 43.125 -50.40625 C 43.800781 -49.78125 44.378906 -48.796875 44.859375 -47.453125 L 57.953125 -9.140625 L 55.4375 -9.140625 L 68.609375 -47.59375 C 69.046875 -48.84375 69.625 -49.78125 70.34375 -50.40625 C 71.0625 -51.03125 72.046875 -51.34375 73.296875 -51.34375 C 74.828125 -51.34375 75.953125 -50.8125 76.671875 -49.75 C 77.398438 -48.695312 77.5 -47.398438 76.96875 -45.859375 L 61.78125 -3.234375 C 61.300781 -1.941406 60.675781 -0.984375 59.90625 -0.359375 C 59.132812 0.265625 58.101562 0.578125 56.8125 0.578125 C 55.507812 0.578125 54.472656 0.265625 53.703125 -0.359375 C 52.941406 -0.984375 52.320312 -1.96875 51.84375 -3.3125 L 39.3125 -39.03125 L 40.96875 -39.03125 L 28.296875 -3.234375 C 27.816406 -1.941406 27.203125 -0.984375 26.453125 -0.359375 C 25.710938 0.265625 24.695312 0.578125 23.40625 0.578125 Z M 23.40625 0.578125 "/></g></g></g></svg>