<svg xmlns="http://www.w3.org/2000/svg" xmlns:xlink="http://www.w3.org/1999/xlink" width="1000" zoomAndPan="magnify" viewBox="0 0 750 749.999995" height="1000" preserveAspectRatio="xMidYMid meet" version="1.0"><defs><clipPath id="1b15a55fcb"><path d="M 283 205 L 735 205 L 735 711.683594 L 283 711.683594 Z M 283 205 " clip-rule="nonzero"/></clipPath><clipPath id="3670371d11"><path d="M 3 204 L 745 204 L 745 711.683594 L 3 711.683594 Z M 3 204 " clip-rule="nonzero"/></clipPath></defs><g clip-path="url(#1b15a55fcb)"><path fill="#46b2a2" d="M 715.320312 497.347656 L 384.347656 497.347656 C 375.105469 497.347656 367.246094 490.574219 365.894531 481.4375 L 328.003906 227.414062 C 326.289062 215.898438 335.199219 205.542969 346.851562 205.542969 L 677.824219 205.542969 C 687.066406 205.542969 694.925781 212.316406 696.28125 221.453125 L 734.167969 475.476562 C 735.882812 487.007812 726.972656 497.347656 715.320312 497.347656 Z M 369.414062 624.683594 L 283.355469 681.132812 L 359.855469 681.132812 C 369.160156 681.132812 376.292969 672.898438 374.984375 663.6875 Z M 670.644531 660.539062 C 621.058594 635.070312 515.988281 672.25 515.988281 672.25 C 448.566406 627.300781 406.582031 629.484375 389.617188 633.488281 L 397.777344 692.527344 C 399.296875 703.546875 408.71875 711.765625 419.859375 711.765625 L 655.320312 711.765625 C 667.167969 711.765625 676.289062 701.304688 674.664062 689.5625 Z M 670.644531 660.539062 " fill-opacity="1" fill-rule="nonzero"/></g><path fill="#f5ce02" d="M 470.558594 432.832031 C 463.542969 437.886719 447.960938 446.078125 447.960938 446.078125 C 441.339844 435.164062 442.121094 425.4375 442.121094 425.4375 C 442.121094 425.4375 456.917969 421.148438 464.324219 420.757812 C 471.714844 420.367188 477.570312 427.773438 470.558594 432.832031 Z M 638.429688 478.019531 C 647.777344 471.789062 653.226562 464.382812 653.226562 464.382812 C 653.226562 464.382812 639.980469 459.324219 634.53125 458.148438 C 629.082031 456.976562 624.402344 459.714844 629.472656 466.714844 C 634.53125 473.730469 638.429688 478.019531 638.429688 478.019531 Z M 459.253906 393.105469 C 451.078125 391.164062 443.28125 393.886719 443.28125 393.886719 C 443.28125 393.886719 440.949219 404.019531 441.730469 416.089844 C 441.730469 416.089844 449.90625 414.148438 460.035156 407.917969 C 470.167969 401.671875 467.441406 395.0625 459.253906 393.105469 Z M 657.519531 453.875 C 665.316406 443.351562 666.472656 426.222656 666.472656 426.222656 C 666.472656 426.222656 650.894531 421.933594 641.9375 423.496094 C 632.980469 425.0625 628.691406 428.554688 634.53125 436.746094 C 640.371094 444.917969 657.519531 453.875 657.519531 453.875 Z M 644.664062 399.335938 C 655.953125 405.570312 667.648438 408.683594 667.648438 408.683594 C 667.257812 397.773438 661.023438 379.074219 661.023438 379.074219 C 661.023438 379.074219 633.371094 393.105469 644.664062 399.335938 Z M 469.382812 453.484375 C 463.152344 456.207031 455.355469 459.714844 455.355469 459.714844 C 455.355469 459.714844 461.585938 474.121094 476.382812 478.410156 C 476.382812 478.410156 479.890625 473.730469 481.441406 461.265625 C 483.019531 448.800781 475.617188 450.757812 469.382812 453.484375 Z M 541.097656 319.796875 C 541.097656 319.796875 545.65625 349.316406 558.859375 350.460938 C 572.0625 351.605469 573.460938 320.082031 573.460938 320.082031 C 573.460938 320.082031 559.523438 318.109375 541.097656 319.796875 Z M 592.699219 345.824219 C 598.902344 346.5625 603.265625 324.582031 603.265625 324.582031 C 603.265625 324.582031 592.503906 321.632812 583.9375 321.527344 C 583.9375 321.527344 586.496094 345.070312 592.699219 345.824219 Z M 507.242188 325.742188 C 507.242188 325.742188 515.007812 346.863281 525.183594 346.273438 C 535.363281 345.6875 532.066406 321.300781 532.066406 321.300781 C 532.066406 321.300781 521.648438 319.539062 507.242188 325.742188 Z M 381.351562 431.671875 C 378.777344 431.671875 376.671875 433.765625 376.671875 436.339844 C 376.671875 438.910156 378.761719 441.019531 381.351562 441.019531 C 383.925781 441.019531 386.019531 438.925781 386.019531 436.339844 C 386.019531 433.75 383.941406 431.671875 381.351562 431.671875 Z M 391.484375 420.757812 C 388.910156 420.757812 386.800781 422.851562 386.800781 425.4375 C 386.800781 428.011719 388.894531 430.121094 391.484375 430.121094 C 394.074219 430.121094 396.148438 428.027344 396.148438 425.4375 C 396.164062 422.851562 394.074219 420.757812 391.484375 420.757812 Z M 374.308594 445.398438 C 372.394531 445.398438 370.84375 446.949219 370.84375 448.863281 C 370.84375 450.773438 372.394531 452.324219 374.308594 452.324219 C 376.21875 452.324219 377.769531 450.773438 377.769531 448.863281 C 377.769531 446.949219 376.203125 445.398438 374.308594 445.398438 Z M 626.613281 515.9375 C 626.613281 515.9375 646.347656 554.371094 643.230469 584.492188 C 662.457031 568.382812 700.886719 515.414062 700.886719 515.414062 Z M 292.792969 221.679688 L 92.347656 221.679688 C 80.800781 221.679688 71.917969 231.914062 73.558594 243.339844 L 133.1875 660.628906 C 134.871094 672.402344 144.941406 681.132812 156.835938 681.132812 L 283.355469 681.132812 L 369.414062 624.683594 L 314.546875 240.527344 C 312.980469 229.71875 303.722656 221.679688 292.792969 221.679688 Z M 292.792969 221.679688 " fill-opacity="1" fill-rule="nonzero"/><g clip-path="url(#3670371d11)"><path fill="#ffffff" d="M 721.78125 394.28125 C 698.027344 378.984375 671.109375 396.085938 666.414062 399.308594 C 667.0625 402.648438 667.542969 405.914062 667.648438 408.683594 C 667.648438 408.683594 655.96875 405.570312 644.664062 399.335938 C 634.066406 393.480469 657.757812 380.777344 660.722656 379.242188 C 656.253906 363.84375 651.675781 353.769531 651.675781 353.769531 C 658.300781 332.742188 649.34375 312.871094 649.34375 312.871094 C 629.472656 311.320312 615.460938 326.902344 615.460938 326.902344 C 609.828125 325.5625 604.335938 324.460938 598.960938 323.542969 C 601.550781 324.117188 603.28125 324.582031 603.28125 324.582031 C 603.28125 324.582031 598.914062 346.574219 592.714844 345.824219 C 586.511719 345.085938 583.953125 321.527344 583.953125 321.527344 C 584.40625 321.527344 584.871094 321.542969 585.335938 321.574219 C 581.289062 321.105469 577.328125 320.730469 573.460938 320.457031 C 573.25 323.996094 571.234375 351.527344 558.875 350.460938 C 546.636719 349.40625 541.820312 323.949219 541.1875 320.261719 C 537.410156 320.488281 533.839844 320.789062 530.453125 321.136719 C 531.507812 321.210938 532.109375 321.300781 532.109375 321.300781 C 532.109375 321.300781 535.40625 345.671875 525.230469 346.273438 C 515.054688 346.863281 507.289062 325.742188 507.289062 325.742188 C 509.257812 324.882812 511.15625 324.207031 512.960938 323.621094 C 500.363281 325.9375 493.183594 328.453125 493.183594 328.453125 C 476.035156 318.320312 458.515625 317.160156 458.515625 317.160156 C 451.890625 340.539062 456.183594 356.121094 456.183594 356.121094 C 440.316406 382.734375 440.738281 412.433594 442.136719 426.660156 C 442.136719 425.890625 442.167969 425.4375 442.167969 425.4375 C 442.167969 425.4375 456.964844 421.148438 464.371094 420.757812 C 471.777344 420.367188 477.617188 427.773438 470.601562 432.832031 C 463.585938 437.886719 448.007812 446.078125 448.007812 446.078125 C 445.539062 441.996094 444.09375 438.085938 443.25 434.789062 C 443.296875 435.027344 443.328125 435.179688 443.328125 435.179688 C 443.328125 435.179688 427.355469 407.132812 407.875 403.628906 C 388.398438 400.121094 366.195312 411.410156 364.644531 431.671875 C 363.078125 451.933594 376.324219 456.992188 376.324219 456.992188 C 379.441406 480.746094 394.238281 497.890625 394.238281 497.890625 L 668.054688 497.890625 C 690.800781 487.15625 714.074219 453.03125 714.074219 453.03125 C 714.074219 453.03125 723.75 459.476562 736.636719 451.421875 C 749.523438 443.351562 747.910156 411.109375 721.78125 394.28125 Z M 460.035156 407.902344 C 449.90625 414.132812 441.730469 416.078125 441.730469 416.078125 C 440.949219 404.003906 443.28125 393.871094 443.28125 393.871094 C 443.28125 393.871094 451.078125 391.148438 459.253906 393.089844 C 467.441406 395.0625 470.167969 401.671875 460.035156 407.902344 Z M 374.308594 452.308594 C 372.394531 452.308594 370.84375 450.757812 370.84375 448.847656 C 370.84375 446.933594 372.394531 445.386719 374.308594 445.386719 C 376.21875 445.386719 377.769531 446.933594 377.769531 448.847656 C 377.769531 450.757812 376.203125 452.308594 374.308594 452.308594 Z M 381.351562 441.019531 C 378.777344 441.019531 376.671875 438.925781 376.671875 436.339844 C 376.671875 433.75 378.761719 431.671875 381.351562 431.671875 C 383.925781 431.671875 386.019531 433.765625 386.019531 436.339844 C 386.019531 438.910156 383.941406 441.019531 381.351562 441.019531 Z M 391.484375 430.105469 C 388.910156 430.105469 386.800781 428.011719 386.800781 425.425781 C 386.800781 422.851562 388.894531 420.742188 391.484375 420.742188 C 394.074219 420.742188 396.148438 422.835938 396.148438 425.425781 C 396.164062 428.011719 394.074219 430.105469 391.484375 430.105469 Z M 481.457031 461.265625 C 479.890625 473.730469 476.398438 478.410156 476.398438 478.410156 C 461.601562 474.121094 455.367188 459.714844 455.367188 459.714844 C 455.367188 459.714844 463.152344 456.207031 469.398438 453.484375 C 475.617188 450.757812 483.019531 448.800781 481.457031 461.265625 Z M 638.429688 478.019531 C 638.429688 478.019531 634.53125 473.730469 629.472656 466.730469 C 624.414062 459.714844 629.082031 456.992188 634.53125 458.164062 C 639.980469 459.339844 653.226562 464.398438 653.226562 464.398438 C 653.226562 464.398438 647.777344 471.789062 638.429688 478.019531 Z M 657.519531 453.875 C 657.519531 453.875 640.371094 444.917969 634.53125 436.730469 C 628.691406 428.554688 632.964844 425.046875 641.9375 423.484375 C 650.894531 421.933594 666.472656 426.207031 666.472656 426.207031 C 666.472656 426.207031 665.300781 443.351562 657.519531 453.875 Z M 675.175781 689.5625 C 676.800781 701.304688 667.679688 711.765625 655.832031 711.765625 L 655.304688 711.765625 C 667.152344 711.765625 676.273438 701.304688 674.648438 689.5625 L 670.644531 660.539062 C 621.058594 635.070312 515.988281 672.25 515.988281 672.25 C 449.195312 627.722656 407.394531 629.441406 390.113281 633.367188 L 376.609375 535.671875 C 374.984375 523.933594 384.105469 513.46875 395.953125 513.46875 L 631.414062 513.46875 C 634.984375 513.46875 638.355469 514.3125 641.367188 515.820312 L 626.613281 515.925781 C 626.613281 515.925781 646.347656 554.355469 643.230469 584.476562 C 647.566406 580.847656 652.882812 575.324219 658.511719 568.972656 Z M 224.289062 206.054688 C 224.289062 205.167969 225.011719 204.445312 225.898438 204.445312 C 226.785156 204.445312 227.507812 205.167969 227.507812 206.054688 C 227.507812 206.898438 227.808594 226.828125 248.265625 228.542969 C 269.867188 230.351562 273.359375 246.472656 275.90625 258.242188 C 276.128906 259.28125 276.355469 260.304688 276.582031 261.285156 C 279.066406 272.078125 289.875 272.078125 296.316406 272.078125 C 297.207031 272.078125 297.929688 272.800781 297.929688 273.6875 C 297.929688 274.578125 297.207031 275.300781 296.316406 275.300781 C 289.890625 275.300781 276.507812 275.300781 273.4375 262.007812 C 273.210938 261.015625 272.984375 259.976562 272.757812 258.921875 C 270.167969 246.9375 267.234375 233.359375 248.011719 231.75 C 224.558594 229.792969 224.289062 206.296875 224.289062 206.054688 Z M 304.414062 420.082031 C 304.414062 420.96875 303.691406 421.691406 302.804688 421.691406 C 296.378906 421.691406 282.996094 421.691406 279.925781 408.398438 C 279.699219 407.40625 279.472656 406.367188 279.246094 405.3125 C 276.65625 393.332031 273.722656 379.753906 254.5 378.140625 C 231.0625 376.183594 230.789062 352.6875 230.789062 352.445312 C 230.789062 351.558594 231.511719 350.835938 232.402344 350.835938 C 233.289062 350.835938 234.011719 351.558594 234.011719 352.445312 C 234.011719 353.289062 234.3125 373.21875 254.769531 374.9375 C 276.371094 376.742188 279.863281 392.863281 282.40625 404.636719 C 282.632812 405.675781 282.859375 406.699219 283.085938 407.675781 C 285.570312 418.46875 296.378906 418.46875 302.820312 418.46875 C 303.691406 418.46875 304.414062 419.175781 304.414062 420.082031 Z M 378.085938 272.753906 C 378.085938 271.867188 378.808594 271.144531 379.695312 271.144531 C 380.585938 271.144531 381.308594 271.867188 381.308594 272.753906 C 381.308594 273.597656 381.609375 293.527344 402.066406 295.246094 C 423.667969 297.050781 427.144531 313.171875 429.703125 324.945312 C 429.929688 325.984375 430.15625 327.007812 430.378906 327.984375 C 432.863281 338.777344 443.671875 338.777344 450.117188 338.777344 C 451.003906 338.777344 451.726562 339.5 451.726562 340.390625 C 451.726562 341.277344 451.003906 342 450.117188 342 C 443.6875 342 430.304688 342 427.234375 328.707031 C 427.007812 327.714844 426.78125 326.675781 426.558594 325.621094 C 423.96875 313.640625 421.03125 300.0625 401.808594 298.449219 C 378.355469 296.507812 378.085938 272.996094 378.085938 272.753906 Z M 616.195312 230.140625 C 616.195312 229.25 616.917969 228.527344 617.808594 228.527344 C 618.695312 228.527344 619.417969 229.25 619.417969 230.140625 C 619.417969 230.984375 619.71875 250.914062 640.175781 252.628906 C 661.777344 254.433594 665.253906 270.558594 667.8125 282.328125 C 668.039062 283.367188 668.265625 284.390625 668.492188 285.371094 C 670.976562 296.164062 681.785156 296.164062 688.226562 296.164062 C 689.113281 296.164062 689.835938 296.886719 689.835938 297.773438 C 689.835938 298.660156 689.113281 299.382812 688.226562 299.382812 C 681.796875 299.382812 668.417969 299.382812 665.34375 286.09375 C 665.121094 285.097656 664.894531 284.058594 664.667969 283.007812 C 662.078125 271.023438 659.144531 257.445312 639.921875 255.835938 C 616.46875 253.878906 616.195312 230.378906 616.195312 230.140625 Z M 163.578125 669.300781 C 163.578125 670.1875 162.855469 670.910156 161.96875 670.910156 C 155.539062 670.910156 142.15625 670.910156 139.085938 657.621094 C 138.859375 656.625 138.636719 655.585938 138.410156 654.535156 C 135.820312 642.550781 132.886719 628.972656 113.660156 627.363281 C 90.222656 625.40625 89.953125 601.90625 89.953125 601.667969 C 89.953125 600.777344 90.675781 600.054688 91.5625 600.054688 C 92.453125 600.054688 93.175781 600.777344 93.175781 601.667969 C 93.175781 602.511719 93.476562 622.457031 113.933594 624.15625 C 135.535156 625.960938 139.027344 642.085938 141.570312 653.855469 C 141.796875 654.894531 142.023438 655.917969 142.246094 656.898438 C 144.730469 667.691406 155.539062 667.691406 161.984375 667.691406 C 162.855469 667.691406 163.578125 668.414062 163.578125 669.300781 Z M 193.277344 400.285156 C 193.1875 401.113281 192.496094 401.730469 191.683594 401.730469 C 191.621094 401.730469 191.578125 401.730469 191.515625 401.714844 C 165.988281 399.125 127.4375 385.246094 88.792969 333.839844 C 71.933594 311.410156 60.808594 289.375 56.007812 279.03125 L 3.15625 217.433594 L 86.898438 243.144531 L 59.167969 278.160156 C 70.804688 302.890625 117.246094 390.953125 191.832031 398.507812 C 192.722656 398.601562 193.367188 399.398438 193.277344 400.285156 Z M 193.277344 400.285156 " fill-opacity="1" fill-rule="nonzero"/></g><path fill="#f9c2aa" d="M 641.9375 288.726562 C 641.9375 288.726562 641.667969 299.324219 638.371094 313.699219 C 624.507812 316.847656 615.445312 326.902344 615.445312 326.902344 C 545.328125 310.148438 493.136719 328.453125 493.136719 328.453125 C 479.9375 320.65625 466.523438 318.171875 461.042969 317.433594 C 459.554688 313.609375 458.859375 311.304688 458.859375 311.304688 C 458.859375 311.304688 442.5 312.480469 432.757812 294.160156 C 423.019531 275.855469 438.992188 259.492188 438.992188 259.492188 C 426.917969 220.535156 440.933594 111.476562 530.136719 107.59375 C 619.328125 103.691406 646.210938 212.363281 646.210938 212.363281 C 646.210938 212.363281 662.183594 222.101562 662.96875 247.03125 C 663.75 271.972656 641.9375 288.726562 641.9375 288.726562 Z M 734.167969 475.492188 L 732.796875 466.308594 C 729.457031 462.46875 722.609375 455.667969 714.058594 453.015625 C 701.847656 449.238281 690.136719 439.167969 690.136719 439.167969 C 690.136719 439.167969 685.953125 438.097656 679.722656 436.730469 C 673.488281 435.359375 671.351562 441.214844 674.46875 446.859375 C 677.582031 452.503906 679.523438 456.011719 679.523438 456.011719 C 679.523438 456.011719 675.824219 453.875 668.429688 450.757812 C 661.023438 447.644531 657.519531 453.875 660.632812 461.085938 C 663.75 468.296875 667.453125 472.179688 667.453125 472.179688 C 667.453125 472.179688 669.019531 473.746094 659.472656 465.949219 C 649.929688 458.164062 643.894531 464.382812 647.402344 472.375 C 650.625 479.722656 662.394531 494.941406 664.277344 497.363281 L 715.335938 497.363281 C 726.972656 497.347656 735.882812 487.007812 734.167969 475.492188 Z M 417.195312 494.382812 C 417.195312 494.382812 438.222656 483.09375 435.5 476.859375 C 432.773438 470.628906 408.238281 479.976562 408.238281 479.976562 C 408.238281 479.976562 430.441406 464.789062 426.933594 458.164062 C 423.425781 451.542969 399.28125 462.832031 399.28125 462.832031 C 399.28125 462.832031 419.917969 448.035156 416.800781 441.800781 C 413.6875 435.570312 402.398438 439.859375 388.757812 447.25 C 375.121094 454.65625 363.183594 462.96875 363.183594 462.96875 L 365.832031 481.015625 C 367.21875 490.410156 375.269531 497.378906 384.769531 497.378906 L 436.792969 497.378906 C 436.792969 497.378906 438.613281 494.398438 436.65625 491.28125 C 434.714844 488.152344 417.195312 494.382812 417.195312 494.382812 Z M 620.125 589.414062 C 620.125 589.414062 640.761719 529.816406 592.082031 507.222656 C 543.398438 484.628906 500.152344 506.050781 490.804688 528.644531 L 477.949219 561.371094 C 477.949219 561.371094 461.585938 561.371094 456.527344 578.125 C 451.46875 594.878906 462.761719 606.558594 462.761719 606.558594 C 462.761719 606.558594 438.222656 689.515625 506.773438 697.707031 C 575.328125 705.878906 609.210938 641.226562 609.210938 641.226562 C 609.210938 641.226562 622.457031 637.71875 629.472656 619.023438 C 636.488281 600.328125 620.125 589.414062 620.125 589.414062 Z M 84.550781 421.539062 C 74.808594 412.585938 72.867188 408.683594 62.347656 405.960938 C 51.824219 403.234375 41.707031 405.570312 41.707031 405.570312 C 41.707031 405.570312 31.96875 400.121094 26.910156 402.453125 C 21.851562 404.785156 9.765625 413.367188 5.882812 418.035156 C 1.984375 422.699219 0.433594 430.105469 5.488281 440.628906 C 10.546875 451.148438 16.011719 455.816406 23.011719 455.816406 C 30.027344 455.816406 53.390625 452.308594 62.738281 455.816406 C 72.085938 459.324219 83 476.078125 83 476.078125 L 111.433594 453.617188 C 111.433594 453.605469 94.289062 430.496094 84.550781 421.539062 Z M 226.726562 458.933594 C 213.871094 454.640625 206.855469 441.410156 202.191406 434.003906 C 197.839844 427.109375 190.117188 427.320312 182.769531 428.628906 C 183.253906 421.8125 183.613281 416.738281 183.613281 416.738281 L 180.363281 402.453125 C 180.363281 402.453125 182.320312 402.09375 186.082031 401.023438 C 160.703125 397.0625 124.785156 381.753906 88.765625 333.839844 C 76.421875 317.417969 67.148438 301.191406 61.1875 289.613281 C 46.601562 324.28125 58.582031 354.296875 74.027344 371.667969 C 89.605469 389.191406 114.535156 397.378906 114.535156 397.378906 L 123.492188 440.613281 L 141.011719 433.597656 C 141.011719 433.597656 150.0625 441.214844 159.46875 448.878906 C 158.609375 450.050781 157.886719 451.105469 157.363281 451.902344 C 153.855469 457.351562 156.1875 461.25 156.1875 461.25 C 156.1875 461.25 151.128906 461.25 150.347656 463.976562 C 149.5625 466.699219 154.246094 491.238281 166.710938 500.191406 C 179.171875 509.148438 195.144531 511.484375 216.175781 510.324219 C 237.203125 509.148438 252.015625 509.148438 252.015625 509.148438 L 248.898438 462.410156 C 248.929688 462.441406 239.582031 463.222656 226.726562 458.933594 Z M 191.832031 398.507812 C 192.195312 398.539062 192.496094 398.71875 192.734375 398.945312 C 196.214844 397.773438 200.398438 396.25 205.304688 394.28125 C 223.023438 387.097656 225.566406 363.121094 220.101562 337.410156 C 214.652344 311.699219 201.015625 266.523438 162.839844 252.101562 C 125.734375 238.085938 79.429688 252.792969 62.917969 285.835938 C 78.980469 317.417969 123.640625 391.601562 191.832031 398.507812 Z M 191.832031 398.507812 " fill-opacity="1" fill-rule="nonzero"/><path fill="#230738" d="M 508.144531 393.496094 C 508.144531 392.59375 508.339844 391.734375 508.671875 390.96875 C 507.964844 391.074219 507.257812 390.742188 506.957031 390.066406 C 506.625 389.328125 506.878906 388.46875 507.558594 388.03125 C 507.738281 387.925781 511.863281 385.351562 515.851562 386.4375 C 517.945312 387.007812 519.570312 388.410156 520.714844 390.605469 C 520.941406 391.027344 520.941406 391.507812 520.773438 391.917969 C 520.894531 392.429688 520.984375 392.941406 520.984375 393.480469 C 520.984375 397.035156 518.109375 399.910156 514.558594 399.910156 C 511.003906 399.910156 508.144531 397.050781 508.144531 393.496094 Z M 540.238281 432.03125 C 539.652344 432.695312 539.710938 433.71875 540.375 434.304688 C 540.675781 434.578125 541.066406 434.710938 541.441406 434.710938 C 541.878906 434.710938 542.332031 434.53125 542.648438 434.171875 C 544.90625 431.625 549.316406 427.488281 551.542969 427.171875 C 553.605469 426.882812 558.964844 429.730469 562.09375 431.835938 C 562.832031 432.332031 563.84375 432.136719 564.339844 431.402344 C 564.835938 430.664062 564.640625 429.65625 563.902344 429.15625 C 562.667969 428.316406 556.976562 424.613281 552.851562 424.007812 L 552.460938 415.746094 C 555.050781 413.277344 558.183594 407.464844 557.398438 405.765625 C 556.421875 403.628906 541.425781 403.628906 541.230469 407.332031 C 541.140625 409 546.214844 414.960938 549.253906 416.496094 L 549.617188 424.386719 C 545.808594 425.921875 541.21875 430.917969 540.238281 432.03125 Z M 553.125 461.144531 C 556.480469 461.144531 560.574219 460.40625 565.242188 458.179688 C 566.039062 457.789062 566.386719 456.824219 565.996094 456.027344 C 565.601562 455.230469 564.640625 454.882812 563.84375 455.273438 C 552.460938 460.722656 545.25 456.117188 544.921875 455.90625 C 544.183594 455.410156 543.1875 455.605469 542.691406 456.34375 C 542.195312 457.082031 542.390625 458.089844 543.128906 458.585938 C 543.371094 458.738281 547.027344 461.144531 553.125 461.144531 Z M 596.222656 385.277344 C 596.492188 384.433594 596.011719 383.515625 595.167969 383.261719 C 591.34375 382.054688 588.289062 382.160156 586.074219 383.578125 C 585.398438 384.011719 584.902344 384.511719 584.496094 385.007812 C 583.410156 386.152344 582.734375 387.699219 582.734375 389.402344 C 582.734375 392.953125 585.609375 395.828125 589.160156 395.828125 C 592.714844 395.828125 595.589844 392.953125 595.589844 389.402344 C 595.589844 388.304688 595.289062 387.292969 594.804688 386.390625 C 595.4375 386.347656 596.011719 385.925781 596.222656 385.277344 Z M 718.46875 454.792969 C 724.941406 458 730.058594 463.148438 732.796875 466.292969 L 734.167969 475.476562 L 730.976562 454.117188 C 725.8125 455.9375 721.464844 455.574219 718.46875 454.792969 Z M 651.675781 353.769531 C 651.675781 353.769531 659.746094 371.488281 664.894531 395.859375 C 664.773438 396.132812 664.714844 396.417969 664.757812 396.734375 C 670.792969 434.5 652.007812 460.167969 651.8125 460.421875 C 651.285156 461.128906 651.421875 462.152344 652.144531 462.679688 C 652.429688 462.890625 652.777344 462.996094 653.105469 462.996094 C 653.605469 462.996094 654.085938 462.769531 654.402344 462.351562 C 655.199219 461.28125 673.578125 436.21875 668.21875 398.117188 C 675.941406 393.242188 700.179688 380.339844 721.792969 394.265625 C 721.898438 394.324219 721.992188 394.398438 722.097656 394.476562 L 713.785156 338.75 C 693.042969 337.109375 676.125 340.34375 653.722656 344.273438 C 653.332031 347.359375 652.6875 350.550781 651.675781 353.769531 Z M 581.167969 259.117188 C 581.167969 255.894531 578.546875 253.277344 575.328125 253.277344 C 572.105469 253.277344 569.488281 255.894531 569.488281 259.117188 C 569.488281 262.339844 572.105469 264.957031 575.328125 264.957031 C 578.5625 264.957031 581.167969 262.339844 581.167969 259.117188 Z M 488.078125 275.480469 C 491.300781 275.480469 493.921875 272.859375 493.921875 269.640625 C 493.921875 266.417969 491.300781 263.796875 488.078125 263.796875 C 484.859375 263.796875 482.238281 266.417969 482.238281 269.640625 C 482.238281 272.859375 484.859375 275.480469 488.078125 275.480469 Z M 529.503906 296.027344 C 530.378906 295.875 530.980469 295.050781 530.832031 294.175781 C 530.679688 293.304688 529.851562 292.699219 528.980469 292.851562 C 524.734375 293.558594 517.929688 293.800781 516.125 292.128906 C 515.835938 291.871094 515.746094 291.617188 515.777344 291.210938 C 516.289062 285.355469 519.628906 262.96875 519.660156 262.746094 C 519.796875 261.855469 519.179688 261.042969 518.304688 260.910156 C 517.433594 260.789062 516.605469 261.390625 516.46875 262.261719 C 516.335938 263.179688 513.082031 284.976562 512.570312 290.925781 C 512.449219 292.324219 512.917969 293.558594 513.941406 294.492188 C 515.761719 296.179688 519.210938 296.628906 522.429688 296.628906 C 525.578125 296.628906 528.527344 296.191406 529.503906 296.027344 Z M 585.757812 225.503906 C 586.121094 224.691406 585.757812 223.742188 584.945312 223.367188 C 562.816406 213.386719 549.449219 228.03125 549.316406 228.183594 C 548.726562 228.84375 548.789062 229.867188 549.449219 230.457031 C 549.753906 230.726562 550.144531 230.863281 550.519531 230.863281 C 550.957031 230.863281 551.40625 230.679688 551.722656 230.320312 C 552.207031 229.777344 563.722656 217.328125 583.621094 226.300781 C 584.449219 226.675781 585.398438 226.316406 585.757812 225.503906 Z M 505.4375 233.464844 C 505.902344 232.699219 505.660156 231.71875 504.894531 231.253906 C 482.660156 217.691406 467.894531 235.589844 467.742188 235.769531 C 467.1875 236.460938 467.289062 237.46875 467.984375 238.027344 C 468.285156 238.269531 468.644531 238.390625 468.992188 238.390625 C 469.457031 238.390625 469.925781 238.179688 470.242188 237.785156 C 470.769531 237.140625 483.414062 221.9375 503.207031 233.992188 C 503.976562 234.476562 504.96875 234.234375 505.4375 233.464844 Z M 568.207031 319.828125 C 568.507812 320.082031 568.871094 320.203125 569.230469 320.203125 C 569.699219 320.203125 570.148438 320.007812 570.480469 319.617188 C 575.703125 313.308594 574.574219 302.9375 569.984375 298.871094 C 566.703125 295.96875 562.503906 296.613281 558.722656 300.605469 C 549.570312 310.253906 531.929688 314.378906 531.75 314.421875 C 530.875 314.617188 530.332031 315.492188 530.527344 316.347656 C 530.726562 317.222656 531.582031 317.765625 532.457031 317.570312 C 533.222656 317.386719 551.226562 313.1875 561.058594 302.832031 C 562.832031 300.964844 565.453125 299.171875 567.847656 301.296875 C 570.933594 304.035156 572.390625 312.269531 567.996094 317.570312 C 567.425781 318.246094 567.515625 319.253906 568.207031 319.828125 Z M 444.0625 266.132812 C 466.132812 247.691406 500.40625 165.894531 500.40625 165.894531 C 530.785156 202.503906 618.816406 226.390625 618.816406 226.390625 L 633.882812 266.117188 L 635.179688 231.3125 C 635.179688 231.3125 657.773438 224.042969 660.890625 248.714844 C 664.003906 273.386719 641.667969 285.851562 641.667969 285.851562 L 638.292969 311.5625 C 638.292969 311.5625 671.789062 277.285156 673.867188 215.75 C 675.941406 154.210938 629.714844 115.253906 629.714844 115.253906 C 629.714844 115.253906 655.167969 99.417969 640.355469 68.769531 C 625.558594 38.121094 580.113281 44.355469 568.945312 59.164062 C 557.777344 73.964844 563.75 96.300781 563.75 96.300781 C 513.113281 90.582031 460.667969 114.214844 437.035156 172.90625 C 413.402344 231.601562 454.949219 296.253906 454.949219 296.253906 Z M 683.574219 455.890625 C 682.820312 455.410156 681.828125 455.621094 681.347656 456.375 C 680.863281 457.125 681.074219 458.121094 681.828125 458.601562 C 682.085938 458.765625 708.382812 475.835938 724.683594 491.644531 C 725 491.945312 725.40625 492.09375 725.796875 492.09375 C 726.21875 492.09375 726.640625 491.929688 726.957031 491.597656 C 727.574219 490.964844 727.558594 489.941406 726.929688 489.324219 C 710.382812 473.308594 683.84375 456.074219 683.574219 455.890625 Z M 688.421875 494.308594 C 689.097656 493.734375 689.191406 492.710938 688.617188 492.035156 L 672 472.300781 C 671.425781 471.621094 670.402344 471.53125 669.726562 472.105469 C 669.046875 472.675781 668.957031 473.699219 669.53125 474.378906 L 686.148438 494.113281 C 686.464844 494.488281 686.917969 494.683594 687.382812 494.683594 C 687.746094 494.699219 688.121094 494.5625 688.421875 494.308594 Z M 401.570312 462.652344 C 401.101562 461.882812 400.109375 461.640625 399.355469 462.109375 L 369.234375 480.292969 C 368.46875 480.757812 368.226562 481.738281 368.691406 482.507812 C 368.992188 483.003906 369.519531 483.289062 370.078125 483.289062 C 370.363281 483.289062 370.648438 483.214844 370.90625 483.0625 L 401.027344 464.878906 C 401.78125 464.398438 402.019531 463.402344 401.570312 462.652344 Z M 403.886719 481.40625 L 388.820312 492.832031 C 388.109375 493.375 387.976562 494.382812 388.503906 495.089844 C 388.820312 495.511719 389.300781 495.722656 389.78125 495.722656 C 390.113281 495.722656 390.460938 495.617188 390.761719 495.390625 L 405.828125 483.964844 C 406.535156 483.425781 406.671875 482.414062 406.144531 481.707031 C 405.601562 481.015625 404.59375 480.863281 403.886719 481.40625 Z M 681.707031 426.464844 C 680.910156 426.871094 680.59375 427.847656 681 428.628906 L 686.722656 439.800781 C 687.007812 440.355469 687.578125 440.671875 688.152344 440.671875 C 688.390625 440.671875 688.648438 440.613281 688.886719 440.492188 C 689.6875 440.085938 690.003906 439.109375 689.597656 438.324219 L 683.875 427.15625 C 683.46875 426.371094 682.507812 426.054688 681.707031 426.464844 Z M 714.3125 451.453125 C 714.523438 451.542969 714.75 451.585938 714.976562 451.585938 C 715.59375 451.585938 716.179688 451.226562 716.449219 450.636719 C 719.21875 444.464844 717.355469 439.136719 717.277344 438.910156 C 716.976562 438.070312 716.058594 437.632812 715.214844 437.949219 C 714.375 438.25 713.9375 439.167969 714.253906 440.011719 C 714.269531 440.054688 715.757812 444.332031 713.515625 449.328125 C 713.140625 450.125 713.5 451.089844 714.3125 451.453125 Z M 730.855469 450.246094 C 730.464844 451.042969 730.8125 452.007812 731.609375 452.398438 C 731.835938 452.503906 732.074219 452.566406 732.316406 452.566406 C 732.917969 452.566406 733.492188 452.234375 733.777344 451.660156 C 737.011719 444.976562 733.519531 438.054688 733.371094 437.753906 C 732.964844 436.953125 732 436.652344 731.203125 437.058594 C 730.421875 437.46875 730.105469 438.429688 730.496094 439.226562 C 730.511719 439.273438 733.371094 445.039062 730.855469 450.246094 Z M 492.039062 485.863281 C 492.070312 485.863281 492.082031 485.863281 492.113281 485.863281 C 492.972656 485.863281 493.679688 485.183594 493.722656 484.328125 C 493.769531 483.4375 493.078125 482.6875 492.1875 482.640625 C 492.097656 482.640625 483.636719 482.160156 473.644531 476.0625 C 464.414062 470.417969 451.921875 458.675781 444.847656 434.726562 C 444.605469 433.929688 443.824219 433.476562 443.011719 433.628906 C 441.683594 425.816406 436.945312 389.671875 455.355469 357.503906 C 392.445312 366.429688 364.566406 389.25 353.925781 401.265625 L 365.894531 481.453125 C 367.261719 490.589844 375.105469 497.363281 384.347656 497.363281 L 384.542969 497.363281 C 375.152344 497.242188 367.21875 490.332031 365.847656 481.015625 L 363.199219 462.96875 C 363.199219 462.96875 367.625 459.882812 374.15625 455.816406 C 370.484375 453.394531 363.46875 446.738281 364.628906 431.6875 C 366.195312 411.425781 388.382812 400.136719 407.859375 403.640625 C 424.765625 406.683594 439.019531 428.210938 442.5 433.839844 C 441.882812 434.214844 441.550781 434.9375 441.761719 435.644531 C 455.925781 483.695312 491.675781 485.847656 492.039062 485.863281 Z M 644.285156 471.066406 C 637.917969 479.390625 621.601562 484.734375 621.433594 484.792969 C 620.59375 485.066406 620.125 485.984375 620.398438 486.828125 C 620.621094 487.503906 621.253906 487.941406 621.933594 487.941406 C 622.097656 487.941406 622.261719 487.910156 622.429688 487.863281 C 623.136719 487.640625 639.859375 482.144531 646.84375 473.023438 C 647.386719 472.316406 647.25 471.304688 646.542969 470.765625 C 645.851562 470.222656 644.828125 470.359375 644.285156 471.066406 Z M 561.898438 589.023438 C 559.207031 589.023438 557.039062 591.203125 557.039062 593.882812 C 557.039062 596.578125 559.21875 598.746094 561.898438 598.746094 C 564.578125 598.746094 566.761719 596.5625 566.761719 593.882812 C 566.761719 591.203125 564.578125 589.023438 561.898438 589.023438 Z M 501.914062 578.90625 C 499.21875 578.90625 497.050781 581.089844 497.050781 583.769531 C 497.050781 586.464844 499.234375 588.628906 501.914062 588.628906 C 504.609375 588.628906 506.773438 586.449219 506.773438 583.769531 C 506.773438 581.074219 504.59375 578.90625 501.914062 578.90625 Z M 644.664062 560.976562 C 649.34375 584.355469 629.472656 619.007812 629.472656 619.007812 C 629.472656 619.007812 632.199219 599.527344 620.125 589.398438 C 617.007812 607.3125 613.894531 642.371094 598.703125 658.34375 C 583.515625 674.3125 582.734375 696.125 548.066406 700.792969 C 513.398438 705.472656 513.007812 703.90625 493.921875 702.734375 C 474.832031 701.558594 466.265625 684.429688 460.816406 673.125 C 455.367188 661.835938 453.804688 645.472656 455.761719 635.339844 C 456.707031 630.433594 458.378906 623.492188 459.855469 617.667969 C 464.429688 593.929688 473.265625 569.289062 475.78125 562.558594 C 476.652344 556.613281 478.007812 548.90625 479.90625 541.46875 C 483.804688 526.28125 489.644531 520.046875 490.035156 507.585938 C 490.425781 495.121094 500.558594 475.25 526.644531 485.773438 C 526.644531 485.773438 526.253906 473.699219 543.792969 469.800781 C 561.3125 465.902344 584.300781 488.105469 584.300781 488.105469 C 584.300781 488.105469 590.921875 476.425781 600.660156 479.539062 C 610.386719 482.6875 639.996094 537.617188 644.664062 560.976562 Z M 549.933594 634.136719 C 548.171875 631.546875 544.210938 631.320312 537.828125 633.460938 C 524.460938 637.914062 509.710938 633.867188 509.558594 633.820312 C 508.71875 633.578125 507.8125 634.078125 507.574219 634.933594 C 507.332031 635.792969 507.828125 636.679688 508.6875 636.921875 C 509.320312 637.101562 524.523438 641.285156 538.855469 636.515625 C 544.152344 634.753906 546.667969 635.070312 547.285156 635.957031 C 548.035156 637.058594 546.953125 640.066406 544.90625 642.519531 C 541.082031 647.113281 531.644531 650.558594 521.933594 650.90625 C 521.046875 650.9375 520.351562 651.6875 520.382812 652.578125 C 520.414062 653.449219 521.136719 654.128906 521.992188 654.128906 C 522.007812 654.128906 522.039062 654.128906 522.054688 654.128906 C 532.773438 653.75 542.949219 649.914062 547.390625 644.597656 C 550.007812 641.40625 551.84375 636.9375 549.933594 634.136719 Z M 606.878906 603.835938 L 603.761719 555.921875 C 603.761719 555.921875 588.574219 541.890625 580.777344 532.933594 C 572.980469 523.976562 550.398438 532.152344 536.371094 525.917969 C 522.339844 519.6875 511.832031 536.441406 497.035156 532.152344 L 477.226562 568.007812 C 473.75 577.761719 467.050781 597.8125 463.195312 617.398438 L 463.542969 626.023438 C 463.542969 626.023438 476.59375 620.46875 503.042969 620.199219 C 500.632812 618.859375 498.617188 617.097656 497.925781 614.824219 C 497.472656 613.347656 497.425781 611.074219 499.746094 608.5625 C 504.335938 603.59375 522.476562 581.210938 522.65625 580.984375 C 523.214844 580.292969 524.222656 580.1875 524.929688 580.742188 C 525.621094 581.300781 525.726562 582.324219 525.171875 583.015625 C 524.417969 583.933594 506.773438 605.699219 502.125 610.742188 C 500.574219 612.429688 500.90625 613.511719 501.011719 613.875 C 501.734375 616.269531 506.023438 618.675781 512.226562 620.152344 C 512.34375 620.183594 512.449219 620.257812 512.554688 620.300781 C 517.175781 620.46875 522.128906 620.800781 527.429688 621.328125 C 570.269531 625.617188 586.242188 645.863281 586.242188 645.863281 Z M 552.3125 561.761719 C 551.453125 562 550.941406 562.890625 551.183594 563.746094 C 551.421875 564.605469 552.296875 565.101562 553.167969 564.875 C 553.394531 564.816406 576.320312 558.765625 587.625 575.894531 C 587.941406 576.363281 588.453125 576.617188 588.980469 576.617188 C 589.28125 576.617188 589.597656 576.527344 589.867188 576.347656 C 590.605469 575.851562 590.816406 574.855469 590.320312 574.121094 C 577.734375 555.0625 552.566406 561.699219 552.3125 561.761719 Z M 492.777344 556.445312 C 491.992188 556.867188 491.691406 557.847656 492.113281 558.628906 C 492.535156 559.414062 493.511719 559.714844 494.296875 559.292969 C 494.945312 558.945312 510.222656 551.042969 522.835938 562.558594 C 523.136719 562.84375 523.53125 562.980469 523.921875 562.980469 C 524.359375 562.980469 524.792969 562.800781 525.109375 562.453125 C 525.710938 561.789062 525.667969 560.78125 525.003906 560.179688 C 510.6875 547.097656 492.957031 556.355469 492.777344 556.445312 Z M 361.691406 570.613281 L 369.761719 627.136719 L 283.355469 681.148438 L 195.265625 681.148438 L 191.9375 658.761719 C 191.9375 658.761719 158.699219 653.570312 141.554688 628.640625 C 137.582031 622.863281 131.453125 612.128906 124.378906 599.0625 L 72.476562 484.792969 L 104.359375 458.960938 L 111.433594 453.632812 L 117.667969 460.378906 L 116.117188 443.230469 L 183.628906 416.738281 L 200.773438 406.863281 L 214.277344 409.980469 C 240.242188 391.285156 264.132812 382.449219 295.292969 390.757812 C 316.292969 396.355469 330.667969 401.007812 337.832031 403.445312 L 356.785156 536.140625 L 348.265625 537.210938 Z M 252.046875 509.179688 L 248.929688 462.441406 C 248.929688 462.441406 239.582031 463.222656 226.726562 458.933594 C 213.871094 454.640625 206.855469 441.410156 202.191406 434.003906 C 197.523438 426.597656 188.941406 427.382812 181.160156 428.945312 C 173.363281 430.511719 160.898438 446.46875 157.40625 451.933594 C 153.898438 457.382812 156.230469 461.28125 156.230469 461.28125 C 156.230469 461.28125 151.175781 461.28125 150.390625 464.003906 C 149.609375 466.730469 154.289062 491.265625 166.753906 500.222656 C 179.21875 509.179688 195.191406 511.511719 216.21875 510.355469 C 237.25 509.179688 252.046875 509.179688 252.046875 509.179688 Z M 163.308594 308.3125 C 159.410156 309.859375 158.21875 314.632812 158.175781 314.828125 C 157.964844 315.6875 158.492188 316.558594 159.363281 316.769531 C 159.484375 316.800781 159.621094 316.816406 159.738281 316.816406 C 160.460938 316.816406 161.125 316.320312 161.304688 315.582031 C 161.320312 315.550781 162.164062 312.222656 164.511719 311.292969 C 165.972656 310.703125 167.882812 311.171875 170.15625 312.644531 C 170.910156 313.128906 171.902344 312.917969 172.382812 312.179688 C 172.867188 311.425781 172.65625 310.433594 171.917969 309.953125 C 168.695312 307.875 165.804688 307.316406 163.308594 308.3125 Z M 204.042969 302.320312 C 201.332031 299.882812 198.773438 299.007812 196.46875 299.746094 C 192.632812 300.980469 191.398438 306.097656 191.261719 306.671875 C 191.066406 307.542969 191.621094 308.402344 192.480469 308.597656 C 192.601562 308.625 192.722656 308.640625 192.828125 308.640625 C 193.5625 308.640625 194.226562 308.128906 194.390625 307.378906 C 194.617188 306.382812 195.65625 303.386719 197.433594 302.816406 C 198.847656 302.363281 200.625 303.597656 201.875 304.714844 C 202.535156 305.316406 203.558594 305.253906 204.148438 304.59375 C 204.765625 303.945312 204.703125 302.921875 204.042969 302.320312 Z M 203.589844 325.832031 C 203.996094 324.660156 204.191406 322.792969 202.761719 320.5625 C 199.074219 314.828125 186.355469 307.84375 185.8125 307.558594 C 185.027344 307.136719 184.050781 307.421875 183.628906 308.207031 C 183.207031 308.988281 183.492188 309.964844 184.277344 310.386719 C 187.753906 312.285156 197.359375 318.125 200.050781 322.308594 C 200.640625 323.226562 200.804688 324.027344 200.550781 324.765625 C 199.945312 326.496094 197.148438 327.773438 196.230469 328.089844 C 195.386719 328.375 194.933594 329.28125 195.203125 330.121094 C 195.429688 330.800781 196.0625 331.222656 196.742188 331.222656 C 196.90625 331.222656 197.085938 331.191406 197.253906 331.132812 C 197.765625 330.980469 202.355469 329.355469 203.589844 325.832031 Z M 180.03125 289.78125 C 180.316406 289.449219 187.136719 281.847656 195.597656 286.257812 C 196.394531 286.664062 197.359375 286.363281 197.765625 285.566406 C 198.171875 284.769531 197.871094 283.804688 197.070312 283.398438 C 188.476562 278.925781 180.558594 284.242188 177.578125 287.671875 C 176.992188 288.351562 177.066406 289.359375 177.726562 289.945312 C 178.03125 290.21875 178.40625 290.335938 178.78125 290.335938 C 179.265625 290.335938 179.714844 290.140625 180.03125 289.78125 Z M 168.304688 290.277344 C 151.867188 286.167969 142.5625 298.554688 142.457031 298.675781 C 141.933594 299.398438 142.082031 300.394531 142.804688 300.917969 C 143.089844 301.128906 143.421875 301.234375 143.753906 301.234375 C 144.25 301.234375 144.730469 301.011719 145.046875 300.589844 C 145.378906 300.152344 153.207031 289.824219 167.507812 293.40625 C 168.367188 293.632812 169.253906 293.105469 169.464844 292.234375 C 169.691406 291.359375 169.164062 290.488281 168.304688 290.277344 Z M 178.269531 342.511719 C 190.371094 343.6875 200.023438 342.558594 200.429688 342.511719 C 201.316406 342.40625 201.949219 341.609375 201.84375 340.71875 C 201.738281 339.832031 200.941406 339.199219 200.050781 339.304688 C 199.960938 339.320312 190.328125 340.433594 178.585938 339.304688 C 172.910156 338.761719 169.601562 339.800781 168.726562 342.421875 C 167.703125 345.523438 170.878906 349.089844 174.476562 351.242188 C 180.5 354.855469 191.320312 356.8125 191.773438 356.902344 C 191.863281 356.917969 191.96875 356.933594 192.058594 356.933594 C 192.828125 356.933594 193.503906 356.390625 193.640625 355.609375 C 193.789062 354.734375 193.21875 353.890625 192.328125 353.742188 C 192.222656 353.726562 181.640625 351.800781 176.132812 348.488281 C 173.015625 346.621094 171.496094 344.289062 171.78125 343.445312 C 171.964844 342.917969 173.542969 342.058594 178.269531 342.511719 Z M 182.605469 412.253906 L 180.378906 402.453125 C 167.523438 403.234375 154.667969 400.121094 154.667969 400.121094 C 154.667969 400.121094 168.484375 414.632812 182.605469 412.253906 Z M 201.375 455.214844 C 200.652344 453.363281 198.921875 452.265625 196.742188 452.265625 C 192.707031 452.265625 186.128906 453.800781 185.855469 453.859375 C 184.984375 454.070312 184.457031 454.929688 184.652344 455.800781 C 184.863281 456.675781 185.722656 457.203125 186.59375 457.007812 C 186.65625 456.992188 193.082031 455.484375 196.742188 455.484375 C 197.328125 455.484375 198.082031 455.636719 198.382812 456.390625 C 198.832031 457.53125 198.15625 459.714844 195.65625 462.035156 C 193.699219 463.839844 190.71875 466.292969 187.421875 468.851562 C 187.105469 468.671875 186.746094 468.582031 186.355469 468.640625 C 185.253906 468.835938 184.230469 468.550781 183.222656 467.769531 C 177.335938 463.253906 174.445312 444.859375 173.828125 438.144531 C 173.753906 437.257812 172.988281 436.609375 172.082031 436.683594 C 171.195312 436.757812 170.546875 437.558594 170.625 438.445312 C 170.714844 439.484375 173.0625 464.035156 181.265625 470.328125 C 182.0625 470.945312 182.90625 471.367188 183.78125 471.621094 C 181.972656 472.960938 180.152344 474.257812 178.421875 475.460938 C 178.148438 475.308594 177.847656 475.21875 177.515625 475.265625 C 169.855469 476.125 164.84375 456.613281 163.699219 449.71875 C 163.546875 448.847656 162.734375 448.261719 161.847656 448.394531 C 160.972656 448.546875 160.371094 449.375 160.523438 450.246094 C 160.566406 450.53125 161.742188 457.488281 164.300781 464.410156 C 167.144531 472.132812 170.5625 476.710938 174.460938 478.066406 C 173.949219 478.382812 173.453125 478.699219 172.972656 478.96875 C 171.164062 480.039062 169.507812 480.351562 167.945312 479.933594 C 165.21875 479.210938 163.382812 476.441406 162.734375 475.28125 C 161.546875 473.203125 159.632812 466.160156 159.003906 463.613281 C 158.792969 462.742188 157.902344 462.230469 157.046875 462.441406 C 156.1875 462.652344 155.660156 463.523438 155.871094 464.398438 C 156.113281 465.375 158.308594 474.046875 159.933594 476.875 C 161.003906 478.757812 163.367188 482.039062 167.117188 483.046875 C 167.613281 483.183594 168.125 483.257812 168.636719 483.289062 C 168.90625 483.636719 169.296875 483.875 169.78125 483.921875 L 190.808594 485.472656 C 190.855469 485.472656 190.886719 485.472656 190.929688 485.472656 C 191.773438 485.472656 192.480469 484.824219 192.539062 483.980469 C 192.601562 483.09375 191.9375 482.324219 191.050781 482.25 L 175.652344 481.105469 C 180.394531 478.1875 186.878906 473.445312 192 469.347656 L 196.890625 479.117188 C 197.175781 479.691406 197.75 480.007812 198.335938 480.007812 C 198.578125 480.007812 198.816406 479.945312 199.058594 479.839844 C 199.855469 479.449219 200.171875 478.472656 199.78125 477.675781 L 194.574219 467.257812 C 195.835938 466.203125 196.964844 465.226562 197.871094 464.382812 C 201.0625 461.417969 202.414062 457.894531 201.375 455.214844 Z M 65.539062 434.183594 C 64.996094 433.855469 53.765625 427.082031 41 427.335938 C 42.941406 425.890625 45.199219 424.054688 47.488281 421.933594 C 49.308594 420.230469 50.152344 418.289062 50.03125 416.136719 C 49.746094 411.546875 44.824219 407.917969 44.613281 407.75 C 43.890625 407.226562 42.882812 407.390625 42.371094 408.113281 C 41.84375 408.835938 42.007812 409.84375 42.714844 410.371094 C 43.800781 411.167969 46.660156 413.804688 46.8125 416.347656 C 46.871094 417.234375 46.570312 418.078125 45.9375 418.875 C 41.257812 408.503906 28.386719 404.214844 27.8125 404.035156 C 26.972656 403.761719 26.050781 404.230469 25.78125 405.074219 C 25.511719 405.914062 25.960938 406.832031 26.820312 407.105469 C 26.957031 407.148438 39.796875 411.46875 43.410156 421.285156 C 41.933594 422.5625 40.488281 423.707031 39.195312 424.6875 C 36.859375 410.339844 19.039062 409.046875 18.855469 409.03125 C 17.96875 409 17.203125 409.648438 17.140625 410.535156 C 17.082031 411.425781 17.757812 412.191406 18.648438 412.253906 C 19.339844 412.296875 35.386719 413.472656 36.183594 426.855469 C 35.160156 427.5625 34.421875 428.027344 34.089844 428.222656 C 24.398438 430.527344 20.046875 431.820312 18.164062 432.453125 C 15.890625 429.171875 14.191406 425.695312 14.402344 424.671875 C 15.230469 424.203125 17.847656 425.53125 19.65625 427.050781 C 20.332031 427.621094 21.355469 427.53125 21.929688 426.855469 C 22.5 426.175781 22.425781 425.152344 21.734375 424.582031 C 20.707031 423.722656 15.46875 419.570312 12.265625 422.234375 C 9.207031 424.777344 13.46875 431.535156 16.28125 435.328125 C 16.734375 435.945312 17.578125 436.140625 18.269531 435.824219 C 18.375 435.78125 21.011719 434.605469 35.085938 431.265625 C 49.039062 427.96875 63.714844 436.820312 63.867188 436.910156 C 64.121094 437.074219 64.421875 437.152344 64.710938 437.152344 C 65.25 437.152344 65.777344 436.878906 66.078125 436.382812 C 66.53125 435.644531 66.289062 434.652344 65.539062 434.183594 Z M 148.828125 259.117188 C 187.785156 263.796875 202.972656 287.550781 202.972656 287.550781 C 202.972656 287.550781 209.203125 270.40625 195.175781 248.59375 C 181.144531 226.78125 137.144531 220.941406 101.304688 229.507812 C 65.460938 238.074219 57.289062 272.738281 57.289062 272.738281 C 57.152344 272.875 57.015625 273.011719 56.882812 273.148438 C 60.359375 281.109375 78.753906 321.136719 110.230469 353.953125 C 140.652344 314.722656 148.828125 259.117188 148.828125 259.117188 Z M 77.15625 379.089844 C 98.96875 390.003906 117.273438 407.917969 117.273438 407.917969 L 116.492188 389.613281 C 116.492188 389.613281 85.722656 382.207031 80.273438 368.191406 C 74.824219 354.164062 90.40625 339.757812 90.40625 339.757812 L 107.925781 356.902344 C 108.003906 356.8125 108.0625 356.722656 108.136719 356.644531 C 101.726562 350.023438 95.265625 342.480469 88.792969 333.871094 C 69.796875 308.582031 58.085938 283.804688 54.488281 275.71875 C 20.601562 313.820312 55.902344 368.464844 77.15625 379.089844 Z M 646.996094 515.652344 C 646.257812 516.164062 646.09375 517.171875 646.589844 517.894531 C 646.738281 518.105469 661.628906 540.039062 653.617188 570.582031 C 653.394531 571.441406 653.90625 572.328125 654.761719 572.554688 C 654.898438 572.585938 655.035156 572.613281 655.167969 572.613281 C 655.875 572.613281 656.539062 572.132812 656.71875 571.410156 C 665.121094 539.375 649.871094 517.007812 649.207031 516.074219 C 648.726562 515.320312 647.71875 515.140625 646.996094 515.652344 Z M 668.777344 515.667969 C 668.054688 516.195312 667.90625 517.203125 668.417969 517.925781 C 668.492188 518.03125 676.289062 528.988281 673.324219 545.246094 C 673.15625 546.121094 673.746094 546.964844 674.617188 547.113281 C 674.707031 547.128906 674.8125 547.144531 674.902344 547.144531 C 675.671875 547.144531 676.347656 546.601562 676.484375 545.820312 C 679.691406 528.207031 671.367188 516.511719 671.003906 516.015625 C 670.507812 515.308594 669.5 515.140625 668.777344 515.667969 Z M 687.863281 515.984375 C 687.035156 516.300781 686.601562 517.21875 686.917969 518.0625 C 686.929688 518.105469 688.285156 521.855469 687.367188 525.980469 C 687.171875 526.851562 687.730469 527.710938 688.585938 527.90625 C 688.707031 527.9375 688.828125 527.953125 688.933594 527.953125 C 689.671875 527.953125 690.332031 527.441406 690.5 526.6875 C 691.628906 521.597656 689.988281 517.128906 689.910156 516.949219 C 689.609375 516.089844 688.691406 515.667969 687.863281 515.984375 Z M 645.308594 319.644531 C 638.128906 317.253906 628.917969 330.199219 627.894531 331.6875 C 627.382812 332.425781 627.5625 333.417969 628.300781 333.929688 C 629.035156 334.441406 630.03125 334.246094 630.542969 333.523438 C 633.898438 328.691406 640.597656 321.480469 644.285156 322.714844 C 647.371094 323.742188 645.671875 334.878906 643.261719 342.511719 C 642.992188 343.355469 643.472656 344.273438 644.316406 344.527344 C 644.480469 344.574219 644.648438 344.605469 644.796875 344.605469 C 645.476562 344.605469 646.121094 344.167969 646.332031 343.476562 C 647.445312 339.921875 652.671875 322.097656 645.308594 319.644531 Z M 464.203125 325.757812 C 467.261719 324.371094 475.375 332.984375 479.890625 339.261719 C 480.402344 339.984375 481.410156 340.148438 482.132812 339.621094 C 482.855469 339.09375 483.019531 338.101562 482.496094 337.378906 C 480.371094 334.429688 469.445312 319.839844 462.863281 322.835938 C 456.195312 325.863281 460.96875 342.722656 461.992188 346.0625 C 462.203125 346.757812 462.835938 347.207031 463.527344 347.207031 C 463.679688 347.207031 463.84375 347.179688 463.996094 347.132812 C 464.851562 346.878906 465.320312 345.972656 465.0625 345.117188 C 462.957031 338.117188 461.195312 327.128906 464.203125 325.757812 Z M 464.203125 325.757812 " fill-opacity="1" fill-rule="nonzero"/></svg>