<svg xmlns="http://www.w3.org/2000/svg" xmlns:xlink="http://www.w3.org/1999/xlink" width="1000" zoomAndPan="magnify" viewBox="0 0 750 749.999995" height="1000" preserveAspectRatio="xMidYMid meet" version="1.0"><defs><clipPath id="5470fb6166"><path d="M 23 18.410156 L 726 18.410156 L 726 658 L 23 658 Z M 23 18.410156 " clip-rule="nonzero"/></clipPath><clipPath id="5e5c60ee26"><path d="M 0 18.410156 L 747 18.410156 L 747 670 L 0 670 Z M 0 18.410156 " clip-rule="nonzero"/></clipPath></defs><path fill="#f5ce02" d="M 725.445312 109.832031 L 725.445312 646.628906 C 725.445312 652.496094 720.6875 657.257812 714.820312 657.257812 L 457.054688 657.257812 C 451.1875 657.257812 446.425781 652.496094 446.425781 646.628906 L 446.425781 109.832031 C 446.425781 103.960938 451.1875 99.203125 457.054688 99.203125 L 714.820312 99.203125 C 720.6875 99.203125 725.445312 103.960938 725.445312 109.832031 Z M 177.839844 366.425781 C 109.96875 376.824219 68.996094 400.054688 46.371094 450.195312 C 23.75 500.339844 18.246094 587.773438 18.246094 587.773438 L 30.46875 592.671875 L 109.953125 591.453125 L 133.183594 576.175781 L 173.214844 572.679688 L 170.496094 557.839844 L 179.054688 541.328125 C 179.054688 541.328125 165.597656 516.863281 172.941406 480.179688 C 180.285156 443.492188 194.347656 418.421875 194.347656 418.421875 C 194.347656 418.421875 190.683594 392.132812 198.011719 389.0625 C 205.355469 386.007812 216.363281 398.855469 216.363281 398.855469 C 216.363281 398.855469 248.15625 385.398438 273.226562 379.285156 C 273.226562 379.285156 270.777344 363.382812 278.121094 360.328125 C 285.464844 357.269531 292.792969 375 292.792969 375 C 292.792969 375 340.488281 394.566406 360.054688 427.589844 C 379.621094 460.609375 379.015625 497.90625 360.054688 524.816406 C 360.054688 524.816406 374.238281 528.191406 386.328125 537.191406 L 388.179688 533.375 C 388.179688 533.375 388.179688 454.5 369.222656 400.070312 C 350.261719 345.640625 245.707031 356.039062 177.839844 366.425781 Z M 28.886719 140.664062 L 34.085938 141.851562 L 13.347656 137.121094 L 23.472656 154.710938 C 25.023438 149.574219 26.972656 144.785156 28.886719 140.664062 Z M 50.550781 201.707031 C 53.5625 176.804688 61.773438 160.230469 69.269531 149.878906 L 117.921875 160.976562 L 45.019531 144.34375 C 39.832031 153.859375 36.730469 165.703125 34.96875 174.644531 L 69.007812 233.742188 Z M 50.550781 201.707031 " fill-opacity="1" fill-rule="nonzero"/><g clip-path="url(#5470fb6166)"><path fill="#46b2a2" d="M 397.089844 29.097656 L 397.089844 565.898438 C 397.089844 571.765625 392.332031 576.523438 386.464844 576.523438 L 132.652344 576.523438 L 133.199219 576.160156 L 173.230469 572.664062 L 170.511719 557.824219 L 179.070312 541.3125 C 179.070312 541.3125 165.613281 516.851562 172.957031 480.164062 C 180.300781 443.476562 194.363281 418.40625 194.363281 418.40625 C 194.363281 418.40625 190.699219 392.117188 198.027344 389.046875 C 205.371094 385.992188 216.378906 398.839844 216.378906 398.839844 C 216.378906 398.839844 248.171875 385.382812 273.242188 379.269531 C 273.242188 379.269531 270.792969 363.367188 278.136719 360.3125 C 285.480469 357.257812 292.808594 374.984375 292.808594 374.984375 C 292.808594 374.984375 340.503906 394.550781 360.070312 427.574219 C 379.636719 460.597656 379.027344 497.890625 360.070312 524.800781 C 360.070312 524.800781 374.253906 528.175781 386.34375 537.175781 L 388.195312 533.359375 C 388.195312 533.359375 388.195312 454.484375 369.238281 400.054688 C 350.277344 345.625 245.722656 356.023438 177.839844 366.425781 C 154.957031 369.921875 135.144531 374.894531 118.058594 381.855469 L 118.058594 29.097656 C 118.058594 23.230469 122.816406 18.472656 128.683594 18.472656 L 386.449219 18.472656 C 392.332031 18.472656 397.089844 23.230469 397.089844 29.097656 Z M 616.722656 556.882812 C 519.007812 516.316406 461.8125 526.398438 446.425781 530.488281 L 446.425781 646.628906 C 446.425781 652.496094 451.1875 657.257812 457.054688 657.257812 L 714.820312 657.257812 C 720.6875 657.257812 725.445312 652.496094 725.445312 646.628906 L 725.445312 484.9375 C 667.535156 496.203125 616.722656 556.882812 616.722656 556.882812 Z M 23.488281 154.710938 L 34.96875 174.644531 C 36.730469 165.703125 39.832031 153.859375 45.019531 144.34375 L 28.886719 140.664062 C 26.972656 144.785156 25.023438 149.574219 23.488281 154.710938 Z M 50.550781 201.707031 L 69.007812 233.742188 L 117.933594 160.976562 L 69.285156 149.878906 C 61.757812 160.230469 53.546875 176.804688 50.550781 201.707031 Z M 50.550781 201.707031 " fill-opacity="1" fill-rule="nonzero"/></g><path fill="#ffffff" d="M 715.640625 297.640625 L 709.679688 390.734375 L 684 400.828125 L 600.53125 416.886719 C 600.53125 416.886719 546.878906 496.691406 515.222656 457.234375 C 483.585938 417.796875 445.515625 424.667969 425.796875 428.347656 C 406.078125 432.011719 395.523438 401.285156 441.851562 393.957031 C 488.175781 386.613281 517.0625 415.515625 517.0625 415.515625 C 517.0625 415.515625 539.078125 404.054688 514.769531 404.507812 C 490.457031 404.964844 492.753906 378.832031 501.464844 370.574219 C 510.175781 362.320312 541.816406 339.847656 541.816406 339.847656 C 541.816406 339.847656 567.496094 303.160156 547.320312 302.707031 C 527.144531 302.25 495.960938 277.9375 494.121094 244.460938 C 492.28125 210.980469 515.222656 166.039062 515.222656 166.039062 C 515.222656 166.039062 514.3125 147.230469 520.273438 144.9375 C 526.230469 142.640625 539.078125 153.648438 539.078125 153.648438 C 564.300781 146.777344 597.324219 149.054688 597.324219 149.054688 C 597.324219 149.054688 602.371094 132.546875 610.628906 132.546875 C 618.882812 132.546875 629.433594 151.351562 629.433594 151.351562 C 629.433594 151.351562 657.410156 169.703125 668.871094 194 C 680.335938 218.308594 677.585938 236.1875 677.585938 236.1875 C 731.238281 241.691406 715.640625 297.640625 715.640625 297.640625 Z M 360.054688 524.800781 C 379.015625 497.890625 379.621094 460.597656 360.054688 427.574219 C 340.488281 394.550781 292.792969 374.984375 292.792969 374.984375 C 292.792969 374.984375 285.449219 357.257812 278.121094 360.3125 C 270.777344 363.367188 273.226562 379.269531 273.226562 379.269531 C 248.15625 385.382812 216.363281 398.839844 216.363281 398.839844 C 216.363281 398.839844 205.355469 385.992188 198.011719 389.046875 C 190.671875 392.101562 194.347656 418.40625 194.347656 418.40625 C 194.347656 418.40625 180.285156 443.476562 172.941406 480.164062 C 165.597656 516.851562 179.054688 541.3125 179.054688 541.3125 L 170.496094 557.824219 L 173.929688 576.523438 L 386.449219 576.523438 C 392.316406 576.523438 397.074219 571.765625 397.074219 565.898438 L 397.074219 548.09375 C 385.230469 530.792969 360.054688 524.800781 360.054688 524.800781 Z M 262.523438 146.289062 L 266.1875 137.121094 C 247.835938 135.28125 242.332031 121.523438 242.332031 121.523438 L 235.917969 127.027344 C 243.273438 140.785156 262.523438 146.289062 262.523438 146.289062 Z M 335.910156 81.171875 L 339.574219 72.003906 C 321.222656 70.164062 315.71875 56.40625 315.71875 56.40625 L 309.304688 61.910156 C 316.648438 75.667969 335.910156 81.171875 335.910156 81.171875 Z M 486.335938 468.242188 L 479.921875 473.746094 C 487.265625 487.507812 506.527344 493.011719 506.527344 493.011719 L 510.191406 483.84375 C 491.839844 482.003906 486.335938 468.242188 486.335938 468.242188 Z M 707.382812 163.726562 L 711.046875 154.558594 C 692.695312 152.71875 687.191406 138.960938 687.191406 138.960938 L 680.777344 144.464844 C 688.121094 158.222656 707.382812 163.726562 707.382812 163.726562 Z M 459.746094 326.269531 L 463.410156 317.101562 C 445.058594 315.261719 439.554688 301.503906 439.554688 301.503906 L 433.140625 307.007812 C 440.484375 320.765625 459.746094 326.269531 459.746094 326.269531 Z M 363.429688 337.992188 L 367.09375 328.824219 C 348.742188 326.984375 343.238281 313.226562 343.238281 313.226562 L 336.824219 318.730469 C 344.167969 332.488281 363.429688 337.992188 363.429688 337.992188 Z M 368.28125 199.699219 L 371.945312 208.867188 C 371.945312 208.867188 391.207031 203.363281 398.550781 189.605469 L 392.132812 184.101562 C 392.132812 184.101562 386.628906 197.859375 368.28125 199.699219 Z M 488.160156 166.480469 L 481.746094 160.976562 C 481.746094 160.976562 476.242188 174.734375 457.890625 176.574219 L 461.554688 185.742188 C 461.570312 185.742188 480.832031 180.238281 488.160156 166.480469 Z M 164.382812 52.742188 C 164.382812 52.742188 158.878906 66.5 140.527344 68.339844 L 144.191406 77.507812 C 144.191406 77.507812 163.457031 72.003906 170.796875 58.246094 Z M 164.382812 52.742188 " fill-opacity="1" fill-rule="nonzero"/><path fill="#f9c2aa" d="M 601.597656 629.980469 C 593.035156 631.820312 591.820312 624.476562 591.820312 624.476562 C 591.820312 624.476562 582.027344 645.882812 564.910156 648.941406 C 549.707031 651.660156 538.835938 651.007812 527.160156 657.257812 L 457.039062 657.257812 C 451.171875 657.257812 446.410156 652.496094 446.410156 646.628906 L 446.410156 641.6875 C 462.148438 633.476562 500.539062 613.484375 513.535156 606.75 C 530.046875 598.191406 576.527344 551.105469 586.300781 544.992188 C 592.566406 541.085938 601.566406 544.203125 610.929688 551.894531 L 602.355469 515.953125 C 602.355469 515.953125 579.886719 518.703125 548.246094 511.832031 C 516.609375 504.960938 506.511719 474.691406 509.265625 432.5 C 512.015625 390.308594 513.855469 368.292969 540.902344 312.34375 C 561.230469 270.304688 604.851562 257.019531 648.621094 262.324219 C 644.183594 270.929688 637.066406 286.117188 634.90625 299.042969 C 631.699219 318.304688 654.628906 329.3125 671.59375 318.761719 C 685.382812 310.183594 700.679688 289.21875 705.925781 281.648438 C 742.230469 309.835938 725.25 369.664062 725.25 369.664062 C 725.25 369.664062 738.09375 380.671875 729.367188 405.4375 C 720.65625 430.203125 689.929688 436.621094 689.929688 436.621094 L 673.875 466.433594 L 688.546875 499 C 677.78125 533.453125 638.375 554.980469 621.742188 562.71875 C 623.398438 564.664062 625.023438 566.703125 626.636719 568.863281 C 640.699219 587.820312 638.859375 604.332031 630.925781 612.890625 C 622.988281 621.453125 610.15625 628.140625 601.597656 629.980469 Z M 749.574219 579.230469 C 749.117188 561.351562 749.117188 557.671875 747.277344 545.296875 C 745.4375 532.921875 722.96875 531.992188 722.96875 531.992188 C 722.96875 531.992188 724.335938 529.695312 727.558594 526.488281 C 730.765625 523.28125 725.261719 517.320312 717.007812 523.28125 C 708.753906 529.242188 685.367188 544.839844 672.066406 559.054688 C 658.761719 573.269531 645.929688 598.492188 640.425781 616.386719 C 634.921875 634.269531 628.964844 657.210938 628.964844 657.210938 L 682.617188 657.210938 C 682.617188 657.210938 686.28125 643.453125 689.960938 634.738281 C 693.625 626.027344 700.511719 624.644531 722.070312 614.109375 C 743.613281 603.527344 750.03125 597.109375 749.574219 579.230469 Z M 238.378906 518.6875 C 238.378906 518.6875 240.828125 508.898438 231.660156 508.289062 C 222.492188 507.683594 186.414062 515.011719 163.167969 519.296875 C 139.933594 523.585938 125.25 542.527344 114.863281 558.433594 C 104.464844 574.335938 94.6875 589.007812 94.6875 589.007812 L 24.964844 589.007812 C 24.964844 589.007812 25.574219 650.765625 40.867188 688.683594 C 56.148438 726.601562 118.527344 731.480469 147.871094 695.402344 C 177.230469 659.324219 185.789062 574.941406 185.789062 574.941406 C 185.789062 574.941406 226.761719 559.039062 234.714844 552.320312 C 242.667969 545.601562 237.769531 540.703125 237.769531 540.703125 C 237.769531 540.703125 240.21875 535.808594 237.769531 532.144531 C 237.769531 532.144531 242.042969 523.585938 238.378906 518.6875 Z M 407.140625 475.890625 C 398.035156 467.984375 389.414062 463.042969 381.460938 463.667969 C 373.511719 464.273438 375.351562 470.386719 375.351562 470.386719 C 375.351562 470.386719 372.902344 494.242188 368.628906 506.464844 L 383.300781 540.703125 L 394.308594 557.214844 C 394.308594 557.214844 413.269531 538.863281 415.714844 513.792969 C 418.148438 488.722656 416.324219 483.828125 407.140625 475.890625 Z M 187.628906 175.648438 C 123.273438 183.113281 104.464844 227.003906 102.015625 272.875 C 99.570312 318.730469 142.992188 359.703125 174.175781 377.429688 C 181.289062 381.476562 189.058594 385.703125 196.828125 389.835938 C 197.191406 389.503906 197.585938 389.230469 198.011719 389.046875 C 205.355469 385.992188 216.363281 398.839844 216.363281 398.839844 C 216.363281 398.839844 230.851562 392.710938 247.988281 386.84375 L 247.546875 377.429688 C 247.546875 377.429688 257.628906 376.304688 272.847656 373.128906 C 272.890625 368.292969 273.820312 362.105469 278.121094 360.3125 C 282.589844 358.457031 287.0625 364.296875 289.859375 369.160156 C 292.398438 368.507812 295.011719 367.792969 297.6875 367.046875 C 325.816406 359.097656 322.761719 290.617188 308.089844 262.492188 C 293.417969 234.347656 256.105469 167.695312 187.628906 175.648438 Z M 187.628906 175.648438 " fill-opacity="1" fill-rule="nonzero"/><g clip-path="url(#5e5c60ee26)"><path fill="#230738" d="M 272.011719 448.371094 C 272.011719 451.078125 269.820312 453.269531 267.113281 453.269531 C 264.40625 453.269531 262.21875 451.078125 262.21875 448.371094 C 262.21875 445.664062 264.40625 443.476562 267.113281 443.476562 C 269.820312 443.476562 272.011719 445.664062 272.011719 448.371094 Z M 207.195312 390.277344 C 207.195312 390.277344 210.253906 390.886719 216.363281 398.839844 C 235.324219 393.941406 259.785156 383.558594 273.226562 379.269531 L 206.574219 338.921875 Z M 232.359375 538.878906 L 195.0625 549.277344 C 194.058594 549.554688 193.46875 550.601562 193.742188 551.621094 C 193.96875 552.457031 194.746094 553.003906 195.566406 553.003906 C 195.734375 553.003906 195.898438 552.988281 196.082031 552.929688 L 233.378906 542.527344 C 234.378906 542.253906 234.972656 541.207031 234.699219 540.1875 C 234.425781 539.183594 233.378906 538.589844 232.359375 538.878906 Z M 397.089844 29.097656 C 397.089844 23.230469 392.332031 18.472656 386.464844 18.472656 L 128.683594 18.472656 C 122.816406 18.472656 118.058594 23.230469 118.058594 29.097656 L 118.058594 46.339844 L 397.089844 46.339844 Z M 192.191406 527.292969 L 234.988281 520.574219 C 236.023438 520.40625 236.738281 519.433594 236.570312 518.402344 C 236.402344 517.367188 235.429688 516.667969 234.394531 516.820312 L 191.597656 523.539062 C 190.5625 523.707031 189.847656 524.679688 190.015625 525.714844 C 190.167969 526.65625 190.972656 527.308594 191.886719 527.308594 C 191.992188 527.308594 192.097656 527.308594 192.191406 527.292969 Z M 235.550781 527.828125 L 192.753906 536.386719 C 191.71875 536.597656 191.066406 537.585938 191.261719 538.621094 C 191.445312 539.519531 192.234375 540.140625 193.117188 540.140625 C 193.238281 540.140625 193.359375 540.125 193.496094 540.113281 L 236.296875 531.550781 C 237.332031 531.339844 237.984375 530.351562 237.785156 529.316406 C 237.589844 528.296875 236.585938 527.628906 235.550781 527.828125 Z M 374.46875 554.964844 C 374.101562 554.753906 365.253906 549.613281 353.320312 546.148438 C 337.292969 541.496094 323.445312 542.226562 313.226562 548.246094 C 303.117188 554.207031 297.355469 560.574219 296.121094 567.175781 C 295.058594 572.890625 297.902344 576.585938 298.023438 576.738281 C 298.402344 577.207031 298.949219 577.453125 299.5 577.453125 C 299.910156 577.453125 300.320312 577.316406 300.667969 577.054688 C 301.488281 576.417969 301.640625 575.230469 301.019531 574.394531 C 300.941406 574.289062 299.085938 571.78125 299.878906 567.75 C 300.625 564.011719 303.863281 558.160156 315.15625 551.5 C 337.75 538.164062 372.203125 558.019531 372.550781 558.234375 C 373.449219 558.765625 374.621094 558.460938 375.152344 557.550781 C 375.683594 556.652344 375.378906 555.496094 374.46875 554.964844 Z M 304.46875 446.835938 L 307.417969 452.28125 L 302.492188 460.214844 C 301.945312 461.113281 302.21875 462.285156 303.101562 462.832031 C 303.40625 463.027344 303.753906 463.121094 304.105469 463.121094 C 304.742188 463.121094 305.367188 462.800781 305.714844 462.222656 L 310.613281 454.332031 L 317.726562 454.863281 C 318.746094 454.941406 319.6875 454.164062 319.765625 453.117188 C 319.839844 452.066406 319.050781 451.15625 318.015625 451.078125 L 310.792969 450.546875 L 307.511719 444.496094 C 308.984375 441.863281 310.492188 437.652344 309.609375 436.773438 C 308.390625 435.554688 293.097656 439.828125 293.707031 443.8125 C 294.054688 446.015625 301.171875 447.066406 304.46875 446.835938 Z M 376.824219 494.273438 C 376.171875 493.453125 374.96875 493.3125 374.164062 493.96875 C 373.34375 494.621094 373.207031 495.824219 373.859375 496.644531 L 393.425781 521.105469 C 393.808594 521.578125 394.355469 521.820312 394.917969 521.820312 C 395.328125 521.820312 395.753906 521.683594 396.101562 521.410156 C 396.921875 520.757812 397.0625 519.554688 396.40625 518.734375 Z M 314.839844 564.269531 C 315.019531 563.234375 314.335938 562.25 313.304688 562.066406 C 312.285156 561.882812 311.28125 562.566406 311.097656 563.585938 C 311.039062 563.890625 309.792969 571.050781 312.542969 575.871094 C 312.894531 576.480469 313.53125 576.828125 314.199219 576.828125 C 314.519531 576.828125 314.839844 576.753906 315.144531 576.585938 C 316.054688 576.066406 316.375 574.914062 315.84375 574 C 313.773438 570.382812 314.839844 564.332031 314.839844 564.269531 Z M 329.527344 561.546875 C 328.550781 561.199219 327.457031 561.699219 327.09375 562.6875 C 326.820312 563.449219 324.449219 570.261719 326.515625 575.09375 C 326.820312 575.808594 327.519531 576.25 328.265625 576.25 C 328.507812 576.25 328.765625 576.207031 329.007812 576.097656 C 329.964844 575.6875 330.421875 574.5625 330.011719 573.605469 C 328.75 570.671875 330.058594 565.667969 330.664062 563.996094 C 331.015625 562.992188 330.515625 561.898438 329.527344 561.546875 Z M 294.585938 308.9375 C 294.238281 307.949219 293.171875 307.417969 292.171875 307.769531 C 279.324219 312.222656 270.898438 307.875 268.773438 306.550781 C 273.347656 299.769531 275.476562 294.691406 275.597656 294.390625 C 275.992188 293.414062 275.539062 292.304688 274.5625 291.910156 C 273.589844 291.515625 272.480469 291.972656 272.085938 292.945312 C 272.039062 293.050781 267.785156 303.191406 258.355469 313.804688 C 257.65625 314.59375 257.734375 315.78125 258.507812 316.480469 C 258.875 316.800781 259.316406 316.964844 259.769531 316.964844 C 260.289062 316.964844 260.820312 316.753906 261.183594 316.328125 C 263.207031 314.046875 265 311.796875 266.566406 309.652344 C 268.253906 310.734375 273.378906 313.515625 281.179688 313.515625 C 284.71875 313.515625 288.824219 312.9375 293.402344 311.355469 C 294.40625 311.007812 294.9375 309.925781 294.585938 308.9375 Z M 247.546875 298.617188 C 248.09375 298.617188 248.625 298.386719 249.007812 297.929688 C 249.265625 297.613281 255.4375 290.132812 257.355469 281.222656 C 257.566406 280.203125 256.914062 279.183594 255.894531 278.972656 C 254.875 278.742188 253.855469 279.414062 253.644531 280.433594 C 251.941406 288.414062 246.148438 295.4375 246.085938 295.515625 C 245.417969 296.320312 245.523438 297.519531 246.332031 298.191406 C 246.695312 298.480469 247.121094 298.617188 247.546875 298.617188 Z M 231.765625 233.070312 C 211.316406 231.765625 208.398438 249.171875 208.367188 249.355469 C 208.214844 250.390625 208.914062 251.347656 209.949219 251.515625 C 210.054688 251.53125 210.144531 251.542969 210.253906 251.542969 C 211.164062 251.542969 211.96875 250.875 212.121094 249.949219 C 212.214844 249.371094 214.585938 235.746094 231.523438 236.871094 C 232.585938 236.949219 233.46875 236.144531 233.542969 235.09375 C 233.605469 234.03125 232.816406 233.132812 231.765625 233.070312 Z M 282.441406 288.503906 C 281.617188 289.160156 281.496094 290.359375 282.152344 291.164062 C 282.53125 291.636719 283.078125 291.878906 283.625 291.878906 C 284.035156 291.878906 284.460938 291.742188 284.8125 291.46875 C 285.601562 290.832031 292.535156 285.113281 292.230469 279.214844 C 292.140625 277.511719 291.394531 275.078125 288.324219 273.105469 C 279.808594 267.628906 272.984375 263.90625 272.921875 263.859375 C 271.996094 263.359375 270.855469 263.691406 270.351562 264.621094 C 269.851562 265.546875 270.183594 266.6875 271.113281 267.1875 C 271.171875 267.21875 277.878906 270.898438 286.285156 276.296875 C 287.683594 277.191406 288.382812 278.210938 288.445312 279.414062 C 288.613281 282.789062 284.171875 287.121094 282.441406 288.503906 Z M 261.914062 214.25 C 264.621094 212.730469 267.84375 212.5 271.476562 213.550781 C 272.480469 213.839844 273.53125 213.261719 273.835938 212.257812 C 274.125 211.253906 273.546875 210.207031 272.542969 209.902344 C 267.890625 208.546875 263.695312 208.898438 260.058594 210.933594 C 253.492188 214.628906 251.300781 222.519531 251.226562 222.855469 C 250.953125 223.875 251.5625 224.90625 252.5625 225.179688 C 252.730469 225.226562 252.898438 225.242188 253.050781 225.242188 C 253.886719 225.242188 254.664062 224.679688 254.890625 223.84375 C 254.90625 223.765625 256.730469 217.152344 261.914062 214.25 Z M 315.417969 421.460938 C 315.417969 424.167969 317.605469 426.355469 320.3125 426.355469 C 323.019531 426.355469 325.207031 424.167969 325.207031 421.460938 C 325.207031 418.753906 323.019531 416.566406 320.3125 416.566406 C 317.605469 416.566406 315.417969 418.753906 315.417969 421.460938 Z M 170.496094 332.183594 L 188.84375 383.542969 C 188.84375 383.542969 177.839844 397 157.054688 390.261719 C 157.054688 390.261719 148.496094 400.664062 130.144531 403.109375 C 111.792969 405.558594 108.738281 387.832031 108.738281 387.832031 C 108.738281 387.832031 93.457031 397.621094 80.003906 387.222656 C 66.546875 376.824219 74.5 359.703125 74.5 359.703125 C 74.5 359.703125 37.203125 356.648438 50.035156 321.175781 C 50.035156 321.175781 22.515625 304.058594 41.476562 276.539062 C 41.476562 276.539062 21.300781 245.964844 51.875 233.742188 C 51.875 233.742188 39.027344 198.269531 75.105469 193.390625 C 75.105469 193.390625 73.890625 156.703125 111.183594 160.976562 C 111.183594 160.976562 119.136719 118.175781 166.832031 135.296875 C 166.832031 135.296875 199.246094 100.449219 225.53125 139.585938 C 225.53125 139.585938 249.996094 140.800781 253.050781 166.496094 C 256.105469 192.175781 226.140625 194.015625 226.140625 194.015625 C 226.140625 194.015625 229.804688 222.75 181.503906 221.53125 C 181.503906 221.53125 212.683594 249.050781 182.71875 282.683594 C 182.71875 282.683594 190.0625 296.746094 186.382812 310.199219 C 182.734375 323.625 170.496094 332.183594 170.496094 332.183594 Z M 169.886719 323.625 L 146.65625 282.042969 C 146.65625 282.042969 130.144531 301.003906 140.542969 314.457031 C 150.925781 327.914062 169.886719 323.625 169.886719 323.625 Z M 377.828125 479.964844 C 377.039062 479.265625 375.835938 479.34375 375.152344 480.117188 C 374.453125 480.894531 374.527344 482.09375 375.304688 482.792969 L 397.320312 502.359375 C 397.683594 502.679688 398.125 502.847656 398.582031 502.847656 C 399.097656 502.847656 399.628906 502.632812 399.996094 502.207031 C 400.695312 501.433594 400.617188 500.230469 399.84375 499.53125 Z M 160.992188 486.273438 C 159.941406 486.121094 159 486.851562 158.847656 487.886719 L 154.484375 518.429688 C 154.332031 519.464844 155.0625 520.4375 156.097656 520.574219 C 156.1875 520.589844 156.277344 520.589844 156.371094 520.589844 C 157.296875 520.589844 158.105469 519.90625 158.242188 518.964844 L 162.605469 488.417969 C 162.757812 487.386719 162.027344 486.425781 160.992188 486.273438 Z M 25.300781 135.28125 L 21.027344 132.984375 C 20.28125 132.589844 19.78125 131.84375 19.6875 131.007812 L 19.15625 126.191406 C 18.929688 124.078125 16.375 123.148438 14.839844 124.625 L 11.34375 127.96875 C 10.734375 128.546875 9.882812 128.789062 9.046875 128.621094 L 4.300781 127.632812 C 2.21875 127.207031 0.546875 129.335938 1.476562 131.253906 L 3.574219 135.617188 C 3.9375 136.375 3.90625 137.257812 3.480469 138.003906 L 1.078125 142.214844 C 0.03125 144.054688 1.535156 146.304688 3.648438 146.015625 L 8.453125 145.363281 C 9.289062 145.253906 10.125 145.558594 10.6875 146.183594 L 13.941406 149.769531 C 15.371094 151.335938 17.972656 150.59375 18.351562 148.507812 L 19.21875 143.734375 C 19.371094 142.898438 19.917969 142.199219 20.691406 141.863281 L 25.117188 139.875 C 27.0625 138.992188 27.167969 136.285156 25.300781 135.28125 Z M 292.839844 250.664062 C 288.960938 247.195312 285.480469 246.027344 282.5 247.164062 C 277.363281 249.128906 276.328125 257.078125 276.238281 257.992188 C 276.113281 259.023438 276.875 259.96875 277.910156 260.089844 C 277.984375 260.089844 278.046875 260.105469 278.121094 260.105469 C 279.078125 260.105469 279.902344 259.390625 280.007812 258.417969 C 280.203125 256.730469 281.316406 251.679688 283.855469 250.722656 C 285.785156 249.992188 288.429688 251.832031 290.300781 253.507812 C 291.074219 254.207031 292.277344 254.144531 292.976562 253.355469 C 293.691406 252.5625 293.628906 251.363281 292.839844 250.664062 Z M 234.988281 280.859375 C 235.09375 280.871094 235.21875 280.886719 235.324219 280.886719 C 236.21875 280.886719 237.027344 280.234375 237.195312 279.320312 C 237.453125 277.878906 238.636719 273.953125 241.039062 273.074219 C 243.078125 272.328125 245.707031 274.015625 247.5625 275.550781 C 248.367188 276.21875 249.570312 276.113281 250.238281 275.308594 C 250.90625 274.503906 250.800781 273.300781 249.996094 272.632812 C 246.179688 269.453125 242.726562 268.40625 239.730469 269.5 C 234.867188 271.277344 233.589844 277.90625 233.453125 278.652344 C 233.269531 279.6875 233.953125 280.675781 234.988281 280.859375 Z M 403.839844 484.664062 L 380.609375 470.601562 C 379.714844 470.050781 378.542969 470.339844 378.011719 471.238281 C 377.464844 472.136719 377.75 473.304688 378.648438 473.839844 L 401.878906 487.902344 C 402.183594 488.085938 402.535156 488.175781 402.867188 488.175781 C 403.507812 488.175781 404.128906 487.855469 404.496094 487.261719 C 405.027344 486.367188 404.738281 485.195312 403.839844 484.664062 Z M 498.027344 377.796875 C 497.464844 378.679688 497.722656 379.847656 498.605469 380.410156 C 498.789062 380.53125 502.195312 382.644531 507.273438 382.644531 C 508.730469 382.644531 510.34375 382.464844 512.046875 382.007812 C 513.066406 381.734375 513.65625 380.699219 513.382812 379.683594 C 513.109375 378.664062 512.078125 378.070312 511.058594 378.34375 C 505.128906 379.910156 500.824219 377.308594 500.644531 377.1875 C 499.761719 376.65625 498.589844 376.914062 498.027344 377.796875 Z M 511.941406 395.191406 C 512.882812 394.71875 513.261719 393.578125 512.792969 392.636719 C 512.320312 391.691406 511.179688 391.328125 510.238281 391.785156 C 505.722656 394.035156 500.597656 391.386719 500.523438 391.34375 C 499.59375 390.855469 498.453125 391.191406 497.953125 392.117188 C 497.449219 393.046875 497.800781 394.1875 498.726562 394.6875 C 498.925781 394.792969 502.132812 396.480469 506.191406 396.480469 C 508.015625 396.496094 509.992188 396.164062 511.941406 395.191406 Z M 507.425781 229.210938 C 508.472656 229.210938 509.324219 228.359375 509.324219 227.308594 C 509.324219 226.261719 508.472656 225.410156 507.425781 225.410156 L 498.5625 225.410156 C 497.511719 225.410156 496.660156 226.261719 496.660156 227.308594 C 496.660156 228.359375 497.511719 229.210938 498.5625 229.210938 Z M 604.042969 329.191406 C 605.09375 328.71875 630.042969 318.089844 645.871094 336.488281 C 646.25 336.929688 646.78125 337.140625 647.3125 337.140625 C 647.753906 337.140625 648.195312 336.988281 648.546875 336.683594 C 649.335938 336 649.425781 334.800781 648.742188 334.007812 C 631.0625 313.453125 602.796875 325.585938 602.507812 325.707031 C 601.550781 326.132812 601.109375 327.242188 601.535156 328.203125 C 601.960938 329.175781 603.085938 329.601562 604.042969 329.191406 Z M 501.265625 240.75 L 507.074219 238.910156 C 508.078125 238.589844 508.625 237.527344 508.304688 236.523438 C 507.988281 235.519531 506.921875 234.972656 505.917969 235.292969 L 500.113281 237.132812 C 499.109375 237.449219 498.5625 238.515625 498.878906 239.519531 C 499.136719 240.324219 499.882812 240.839844 500.6875 240.839844 C 500.886719 240.824219 501.085938 240.8125 501.265625 240.75 Z M 721.964844 396.753906 C 721.996094 396.753906 722.023438 396.753906 722.054688 396.753906 C 723.058594 396.753906 723.894531 395.964844 723.957031 394.945312 C 724.246094 388.910156 722.617188 384.5 719.152344 381.824219 C 712.78125 376.929688 702.65625 380.0625 702.230469 380.199219 C 701.226562 380.519531 700.679688 381.582031 701 382.585938 C 701.316406 383.589844 702.382812 384.136719 703.386719 383.816406 C 703.460938 383.785156 712.050781 381.140625 716.855469 384.835938 C 719.289062 386.707031 720.398438 390.050781 720.171875 394.75 C 720.109375 395.8125 720.914062 396.710938 721.964844 396.753906 Z M 745.011719 556.289062 C 744.34375 556.105469 728.488281 552.015625 718.726562 558.371094 C 711.71875 562.917969 704.875 571.871094 701.683594 576.386719 C 700.90625 572.3125 700.40625 567.613281 700.253906 562.8125 C 700.269531 562.78125 700.300781 562.765625 700.3125 562.71875 C 700.40625 562.566406 709.179688 546.9375 718.785156 544.855469 C 728.867188 542.664062 741.835938 544.398438 741.972656 544.414062 C 743.035156 544.566406 743.964844 543.835938 744.117188 542.789062 C 744.253906 541.753906 743.539062 540.796875 742.488281 540.644531 C 741.925781 540.566406 728.730469 538.789062 717.980469 541.128906 C 710.605469 542.742188 704.070312 550.40625 700.328125 555.695312 C 700.390625 554.570312 700.449219 553.445312 700.558594 552.335938 C 701.789062 539.246094 719.53125 535.246094 719.699219 535.214844 C 720.71875 534.988281 721.371094 533.984375 721.160156 532.964844 C 720.929688 531.945312 719.941406 531.277344 718.910156 531.507812 C 718.070312 531.6875 698.261719 536.113281 696.785156 551.984375 C 695.570312 565.0625 697.5 581.875 702.136719 589.144531 L 681.691406 594.359375 C 680.671875 594.617188 680.0625 595.652344 680.320312 596.667969 C 680.535156 597.519531 681.308594 598.097656 682.160156 598.097656 C 682.3125 598.097656 682.480469 598.082031 682.632812 598.039062 L 705.269531 592.261719 C 706.867188 593.15625 708.765625 593.550781 710.867188 593.550781 C 716.261719 593.550781 722.769531 591.164062 727.589844 589.386719 C 728.683594 588.992188 729.65625 588.625 730.464844 588.351562 C 735.738281 586.589844 739.082031 577.179688 738.308594 572.417969 C 737.929688 570.03125 736.484375 568.601562 734.445312 568.601562 C 729.09375 568.601562 723.394531 576.964844 722.296875 578.636719 C 721.722656 579.519531 721.980469 580.691406 722.859375 581.269531 C 723.742188 581.84375 724.914062 581.585938 725.492188 580.71875 C 727.742188 577.269531 732 572.402344 734.339844 572.34375 C 734.566406 572.585938 734.949219 574.214844 734.15625 577.207031 C 733.183594 580.917969 731.070312 584.171875 729.277344 584.765625 C 728.441406 585.039062 727.4375 585.417969 726.296875 585.828125 C 720.792969 587.851562 710.5625 591.605469 706.714844 588.71875 C 705.253906 587.625 703.949219 584.945312 702.898438 581.359375 C 702.945312 581.296875 703.003906 581.253906 703.050781 581.175781 C 703.140625 581.039062 712.113281 567.234375 720.839844 561.5625 C 729.1875 556.136719 743.933594 559.9375 744.085938 559.96875 C 745.105469 560.242188 746.136719 559.632812 746.410156 558.613281 C 746.640625 557.597656 746.03125 556.5625 745.011719 556.289062 Z M 616.601562 584.414062 C 610.886719 583.488281 600.683594 586.921875 592.308594 595.316406 C 580.84375 606.78125 584.035156 614.214844 586.863281 620.796875 C 587.167969 621.511719 587.867188 621.953125 588.613281 621.953125 C 588.855469 621.953125 589.113281 621.90625 589.355469 621.800781 C 590.316406 621.390625 590.769531 620.265625 590.34375 619.308594 C 587.667969 613.058594 585.34375 607.644531 594.984375 598.007812 C 602.386719 590.601562 611.3125 587.425781 615.996094 588.171875 C 616.617188 588.277344 617.726562 588.550781 618.09375 589.265625 C 618.109375 589.296875 618.152344 589.386719 618.0625 589.644531 C 617.164062 592.199219 610.019531 596.425781 605.246094 598.617188 C 604.289062 599.054688 603.875 600.179688 604.300781 601.125 C 604.742188 602.082031 605.851562 602.492188 606.8125 602.066406 C 608.96875 601.078125 619.871094 595.878906 621.636719 590.90625 C 622.046875 589.738281 622 588.582031 621.484375 587.5625 C 620.90625 586.375 619.582031 584.886719 616.601562 584.414062 Z M 725.261719 369.632812 L 726.175781 363.671875 C 726.175781 363.671875 676.640625 342.570312 670.683594 341.65625 C 664.722656 340.746094 506.496094 317.800781 502.832031 317.800781 C 499.167969 317.800781 499.625 325.601562 499.625 325.601562 C 499.167969 330.648438 502.832031 329.722656 504.671875 336.152344 C 506.421875 342.296875 499 381.066406 531.140625 385.703125 C 528.558594 390.660156 525.273438 399.066406 529.425781 403.871094 C 523.511719 406.5 505.21875 416.550781 503.289062 440.726562 C 503.289062 440.726562 532.648438 447.597656 551.894531 423.300781 C 551.894531 423.300781 586.285156 464.125 660.585938 458.148438 C 660.585938 458.148438 658.292969 426.964844 617.941406 410.453125 C 596.078125 401.515625 582.699219 399.980469 575.035156 400.433594 C 574.761719 400.328125 574.472656 400.269531 574.152344 400.3125 C 571.097656 400.679688 567.828125 401.132812 564.484375 401.605469 C 552.109375 403.355469 536.691406 405.542969 532.554688 401.710938 C 529.273438 398.6875 532.722656 390.628906 535.261719 386.097656 C 535.460938 386.113281 535.65625 386.128906 535.855469 386.144531 C 535.855469 386.144531 549.613281 367.335938 565.214844 358.167969 C 565.214844 358.167969 564.757812 345.320312 570.71875 345.320312 C 576.675781 345.320312 574.839844 376.503906 580.339844 387.511719 C 585.84375 398.519531 624.371094 404.480469 639.5 397.605469 C 654.628906 390.734375 660.601562 363.214844 664.265625 360.464844 C 667.929688 357.710938 704.617188 366.878906 704.617188 366.878906 C 704.617188 366.878906 714.726562 365.054688 725.261719 369.632812 Z M 608.4375 541.402344 C 636.519531 536.949219 651.433594 495.289062 651.433594 495.289062 C 651.433594 495.289062 625.300781 513.171875 602.355469 515.921875 Z M 563.570312 440.679688 C 554.539062 441.972656 545.753906 438.960938 545.660156 438.929688 C 544.671875 438.582031 543.59375 439.113281 543.246094 440.101562 C 542.894531 441.089844 543.410156 442.167969 544.414062 442.519531 C 544.734375 442.625 551.058594 444.800781 558.8125 444.800781 C 560.53125 444.800781 562.308594 444.691406 564.121094 444.433594 C 565.152344 444.28125 565.882812 443.324219 565.730469 442.289062 C 565.5625 441.257812 564.605469 440.527344 563.570312 440.679688 Z M 541.359375 239.382812 C 535.960938 241.101562 530.59375 237.722656 530.488281 237.648438 C 529.605469 237.070312 528.4375 237.328125 527.859375 238.195312 C 527.28125 239.078125 527.539062 240.25 528.40625 240.824219 C 528.632812 240.960938 532.828125 243.652344 538.105469 243.652344 C 539.503906 243.652344 540.964844 243.472656 542.453125 243 C 546.300781 241.800781 549.460938 238.972656 551.941406 234.636719 C 553.066406 236.554688 554.84375 238.757812 557.640625 240.386719 C 560.273438 241.921875 563.34375 242.679688 566.824219 242.679688 C 569.757812 242.679688 572.984375 242.132812 576.480469 241.039062 C 577.484375 240.71875 578.03125 239.65625 577.726562 238.667969 C 577.40625 237.664062 576.359375 237.101562 575.355469 237.421875 C 568.800781 239.472656 563.511719 239.367188 559.617188 237.132812 C 555.5 234.757812 554.175781 230.59375 553.964844 229.789062 L 553.414062 214.28125 L 556.59375 211.027344 C 551.988281 208.078125 546.4375 211.195312 546.4375 211.195312 L 549.628906 214.476562 L 550.175781 229.683594 C 547.972656 234.957031 545.007812 238.210938 541.359375 239.382812 Z M 601.445312 208.671875 C 603.679688 201.328125 607.007812 196.660156 608.847656 193.269531 L 640.546875 190.136719 C 642.007812 189.984375 643.085938 188.691406 642.949219 187.234375 C 642.828125 185.863281 641.6875 184.816406 640.320312 184.800781 L 605.183594 184.390625 C 602.386719 183.507812 598.234375 182.992188 592.277344 182.992188 C 578.515625 182.992188 510.191406 185.285156 503.761719 186.199219 C 497.34375 187.109375 497.34375 188.039062 497.800781 192.160156 C 498.210938 195.808594 501.007812 199.03125 504.671875 207.757812 C 508.335938 216.46875 510.175781 220.605469 525.773438 220.132812 C 541.375 219.675781 545.496094 214.628906 546.878906 205.917969 C 548.246094 197.207031 552.382812 193.070312 555.132812 201.796875 C 557.886719 210.511719 560.636719 222.902344 576.238281 222.429688 C 591.820312 221.972656 598.238281 219.222656 601.445312 208.671875 Z M 657.121094 307.296875 C 656.90625 307.507812 651.769531 312.710938 651.085938 317.863281 C 650.949219 318.898438 651.675781 319.855469 652.710938 319.992188 C 652.800781 320.007812 652.878906 320.007812 652.96875 320.007812 C 653.914062 320.007812 654.71875 319.308594 654.855469 318.363281 C 655.28125 315.140625 658.578125 311.21875 659.828125 309.972656 C 660.570312 309.226562 660.570312 308.027344 659.828125 307.28125 C 659.066406 306.566406 657.867188 306.566406 657.121094 307.296875 Z M 619.082031 224.511719 C 619.050781 223.464844 618.167969 222.613281 617.121094 222.671875 L 607.34375 222.976562 C 606.292969 223.007812 605.472656 223.890625 605.503906 224.9375 C 605.535156 225.972656 606.386719 226.777344 607.402344 226.777344 C 607.417969 226.777344 607.449219 226.777344 607.464844 226.777344 L 617.242188 226.472656 C 618.289062 226.429688 619.125 225.546875 619.082031 224.511719 Z M 675.957031 239.183594 C 676.929688 238.804688 677.433594 237.710938 677.050781 236.734375 C 676.671875 235.761719 675.578125 235.277344 674.605469 235.640625 C 659.828125 241.296875 648.484375 258.582031 648.011719 259.3125 C 647.4375 260.195312 647.695312 261.367188 648.574219 261.945312 C 648.894531 262.15625 649.261719 262.25 649.609375 262.25 C 650.234375 262.25 650.839844 261.945312 651.207031 261.382812 C 651.296875 261.199219 662.351562 244.398438 675.957031 239.183594 Z M 725.445312 109.832031 C 725.445312 103.960938 720.6875 99.203125 714.820312 99.203125 L 457.054688 99.203125 C 451.1875 99.203125 446.425781 103.960938 446.425781 109.832031 L 446.425781 123.832031 L 725.460938 123.832031 L 725.460938 109.832031 Z M 550.328125 311.324219 C 550.375 311.308594 555.574219 309.242188 561.703125 309.046875 C 569.578125 308.785156 575.292969 311.597656 578.699219 317.40625 C 579.050781 318.015625 579.6875 318.351562 580.339844 318.351562 C 580.660156 318.351562 580.996094 318.257812 581.300781 318.089844 C 582.195312 317.558594 582.5 316.402344 581.96875 315.492188 C 572.070312 298.675781 549.128906 307.722656 548.886719 307.8125 C 547.910156 308.207031 547.441406 309.320312 547.835938 310.277344 C 548.246094 311.234375 549.355469 311.707031 550.328125 311.324219 Z M 607.101562 215.769531 C 607.34375 215.769531 607.585938 215.726562 607.828125 215.617188 L 615.171875 212.5625 C 616.144531 212.167969 616.601562 211.042969 616.191406 210.085938 C 615.78125 209.109375 614.671875 208.65625 613.714844 209.066406 L 606.371094 212.121094 C 605.398438 212.515625 604.941406 213.640625 605.351562 214.597656 C 605.65625 215.328125 606.355469 215.769531 607.101562 215.769531 Z M 501.648438 213.597656 C 500.660156 213.246094 499.578125 213.761719 499.230469 214.75 C 498.878906 215.738281 499.398438 216.820312 500.386719 217.167969 L 505.585938 219.007812 C 505.796875 219.085938 506.011719 219.113281 506.222656 219.113281 C 507 219.113281 507.742188 218.628906 508.015625 217.851562 C 508.367188 216.863281 507.851562 215.785156 506.863281 215.4375 Z M 604.136719 232.964844 C 603.710938 233.921875 604.152344 235.046875 605.109375 235.472656 L 612.757812 238.835938 C 613 238.941406 613.257812 239 613.515625 239 C 614.246094 239 614.945312 238.574219 615.25 237.859375 C 615.675781 236.902344 615.234375 235.777344 614.277344 235.351562 L 606.628906 231.992188 C 605.6875 231.566406 604.5625 232.007812 604.136719 232.964844 Z M 639.132812 311.722656 C 639.257812 311.75 639.378906 311.75 639.515625 311.75 C 640.394531 311.75 641.1875 311.128906 641.371094 310.230469 C 642.007812 307.039062 645.535156 303.527344 646.828125 302.460938 C 647.632812 301.792969 647.753906 300.59375 647.085938 299.785156 C 646.417969 298.980469 645.230469 298.859375 644.410156 299.527344 C 644.183594 299.726562 638.679688 304.300781 637.644531 309.484375 C 637.445312 310.519531 638.117188 311.523438 639.132812 311.722656 Z M 93.683594 587.714844 C 92.804688 587.320312 91.769531 587.714844 91.375 588.597656 L 56.300781 666.710938 C 55.902344 667.59375 56.300781 668.628906 57.179688 669.023438 C 58.0625 669.417969 59.097656 669.023438 59.492188 668.140625 L 94.566406 590.023438 C 94.960938 589.144531 94.566406 588.109375 93.683594 587.714844 Z M 93.683594 587.714844 " fill-opacity="1" fill-rule="nonzero"/></g></svg>