<svg xmlns="http://www.w3.org/2000/svg" xmlns:xlink="http://www.w3.org/1999/xlink" width="1000" zoomAndPan="magnify" viewBox="0 0 750 749.999995" height="1000" preserveAspectRatio="xMidYMid meet" version="1.0"><defs><clipPath id="2e55a5ad26"><path d="M 0 224.316406 L 623 224.316406 L 623 475 L 0 475 Z M 0 224.316406 " clip-rule="nonzero"/></clipPath></defs><path fill="#f5ce02" d="M 747.253906 424.921875 L 734.855469 432.074219 C 733.007812 433.144531 731.863281 435.109375 731.863281 437.246094 C 731.863281 447.070312 723.902344 455.03125 714.078125 455.03125 L 522.941406 455.03125 C 513.117188 455.03125 505.15625 447.070312 505.15625 437.246094 L 505.15625 364.183594 C 505.15625 354.359375 513.117188 346.398438 522.941406 346.398438 L 714.09375 346.398438 C 723.917969 346.398438 731.878906 354.359375 731.878906 364.183594 L 731.878906 405.902344 C 731.878906 408.050781 733.039062 410.050781 734.929688 411.101562 L 747.207031 417.980469 C 749.910156 419.492188 749.921875 423.367188 747.253906 424.921875 Z M 375.199219 300.136719 C 376.128906 297.433594 377.121094 293.835938 377.988281 289.03125 C 380.523438 275.089844 379.253906 259.105469 362.019531 247.433594 C 344.769531 235.765625 318.65625 250.226562 313.332031 266.714844 C 313.332031 266.714844 349.601562 282.683594 371.917969 307.042969 C 371.917969 307.042969 371.980469 306.984375 372.085938 306.832031 L 372.054688 306.90625 C 372.054688 306.90625 378.90625 316.792969 381.191406 318.074219 C 383.480469 319.339844 384.609375 316.929688 383.222656 313.632812 C 381.910156 310.582031 376.097656 301.507812 375.199219 300.136719 Z M 628.554688 295.621094 C 629.820312 291.59375 620.667969 286.542969 612.75 289.703125 C 614.261719 291.65625 615.910156 294.09375 617.402344 296.960938 C 622.46875 295.679688 627.304688 299.585938 628.554688 295.621094 Z M 611.441406 302.972656 C 608.265625 301.507812 605.308594 300.851562 602.945312 300.5625 C 601.402344 304.085938 600.457031 307.320312 597.789062 309.699219 C 601.234375 310.734375 604.515625 312.351562 607.382812 314.078125 C 609.546875 310.414062 610.25 306.25 611.441406 302.972656 Z M 579.867188 254.789062 C 582.71875 256.34375 585.3125 258.90625 587.15625 261.027344 C 588.027344 259.089844 588.804688 257.03125 589.0625 254.511719 C 582.125 249.160156 574.464844 251.84375 579.867188 254.789062 Z M 588.453125 247.433594 C 587.980469 245.46875 587.355469 243.636719 586.652344 241.976562 C 583.070312 242.738281 578.921875 243.941406 579.363281 245.421875 C 579.636719 246.320312 583.800781 245.957031 588.453125 247.433594 Z M 582.015625 311.453125 C 581.679688 314.566406 580.828125 318.652344 580.019531 322.054688 C 583.128906 322.785156 587.140625 323.0625 592.296875 322.496094 C 592.496094 322.480469 592.664062 322.449219 592.847656 322.421875 C 592.527344 318.453125 591.457031 315.28125 590.3125 312.964844 C 586.546875 313.605469 583.878906 312.765625 582.015625 311.453125 Z M 582.015625 311.453125 " fill-opacity="1" fill-rule="nonzero"/><path fill="#46b2a2" d="M 489.0625 364.960938 L 489.0625 438.023438 C 489.0625 447.847656 481.101562 455.808594 471.277344 455.808594 C 466.976562 455.808594 463.011719 458.128906 460.90625 461.894531 L 454.363281 473.578125 C 453.339844 475.410156 450.71875 475.425781 449.679688 473.609375 L 442.847656 461.757812 C 440.726562 458.082031 436.789062 455.808594 432.550781 455.808594 L 280.140625 455.808594 C 270.316406 455.808594 262.355469 447.847656 262.355469 438.023438 L 262.355469 364.960938 C 262.355469 355.136719 270.316406 347.175781 280.140625 347.175781 L 471.292969 347.175781 C 481.101562 347.175781 489.0625 355.136719 489.0625 364.960938 Z M 725.183594 414.304688 C 715.679688 396.046875 693.988281 392.617188 668.121094 397.574219 C 642.25 402.515625 624.757812 410.125 624.757812 410.125 L 652.914062 461.101562 C 652.914062 461.101562 678.78125 460.339844 709.59375 458.050781 C 740.390625 455.777344 734.6875 432.5625 725.183594 414.304688 Z M 205.796875 393.011719 C 205.796875 393.011719 186.273438 366.882812 163.957031 362.582031 C 141.640625 358.265625 129.714844 369.691406 129.714844 369.691406 C 129.714844 369.691406 138.332031 387.6875 119.570312 397.328125 C 100.808594 406.96875 70.882812 395.039062 70.882812 395.039062 C 70.882812 395.039062 43.746094 400.121094 38.667969 414.566406 C 33.585938 429.023438 27.5 446.015625 27.5 446.015625 L 72.894531 464.535156 L 77.210938 455.917969 L 212.125 455.917969 L 189.550781 424.722656 Z M 216.441406 242.617188 C 216.441406 242.617188 215.679688 234.761719 208.070312 234.242188 C 200.457031 233.738281 196.398438 239.0625 192.34375 238.558594 L 196.660156 240.328125 C 196.660156 240.328125 189.308594 245.910156 176.875 255.289062 C 164.445312 264.671875 103.585938 310.582031 103.585938 310.582031 C 103.585938 310.582031 131.359375 310.964844 145.425781 288.527344 C 145.425781 288.527344 172.054688 297.90625 185.234375 291.820312 C 198.429688 285.734375 203.492188 272.800781 205.019531 264.183594 C 206.542969 255.566406 212.125 251.507812 217.695312 252.773438 L 214.140625 248.457031 L 222.253906 246.429688 Z M 216.441406 242.617188 " fill-opacity="1" fill-rule="nonzero"/><g clip-path="url(#2e55a5ad26)"><path fill="#fefefe" d="M 462.570312 347.742188 C 462.570312 347.742188 462.8125 347.527344 463.210938 347.175781 L 462.949219 347.175781 C 464.171875 345.316406 468.105469 339.078125 469.539062 333.480469 C 471.246094 326.828125 468.777344 321.109375 465.160156 312.550781 C 461.546875 303.996094 454.894531 303.414062 450.136719 307.410156 C 445.378906 311.40625 438.699219 317.644531 434.730469 318.257812 C 429.789062 319.019531 427.882812 311.789062 416.65625 310.84375 C 405.429688 309.898438 394.21875 317.492188 394.21875 317.492188 C 394.21875 317.492188 383.375 315.585938 378.050781 327.195312 C 372.726562 338.800781 375.152344 347.175781 375.152344 347.175781 C 376.234375 362.078125 379.011719 382.792969 375.0625 394.398438 C 371.003906 406.3125 341.839844 433.203125 341.839844 433.203125 L 339.6875 455.808594 L 432.535156 455.808594 C 436.789062 455.808594 440.710938 458.082031 442.832031 461.757812 L 449.664062 473.609375 C 450.71875 475.425781 453.324219 475.410156 454.347656 473.578125 L 460.890625 461.894531 C 461.089844 461.542969 461.316406 461.222656 461.53125 460.902344 C 462.613281 437.871094 448.109375 393.058594 449.878906 378.429688 C 451.648438 363.726562 468.136719 354.847656 470.164062 351.554688 C 471.066406 350.089844 471.675781 348.472656 471.828125 347.207031 C 471.644531 347.207031 471.445312 347.175781 471.261719 347.175781 C 470.347656 344.886719 462.570312 347.742188 462.570312 347.742188 Z M 455.339844 363.589844 C 447.484375 366.882812 443.425781 355.214844 443.425781 355.214844 C 443.425781 355.214844 451.800781 355.472656 460.160156 349.890625 C 460.160156 349.890625 463.210938 360.292969 455.339844 363.589844 Z M 588.453125 247.433594 C 588.4375 247.421875 588.4375 247.421875 588.453125 247.433594 C 588.4375 247.390625 588.421875 247.328125 588.40625 247.28125 C 588.421875 247.328125 588.4375 247.375 588.453125 247.433594 Z M 587.234375 260.859375 C 587.417969 260.445312 587.597656 260.035156 587.765625 259.605469 C 587.597656 260.019531 587.417969 260.429688 587.234375 260.859375 Z M 587.15625 261.027344 C 587.171875 260.964844 587.203125 260.902344 587.234375 260.84375 C 587.203125 260.902344 587.1875 260.964844 587.15625 261.027344 Z M 581.085938 322.28125 C 581.285156 322.328125 581.484375 322.359375 581.695312 322.40625 C 581.484375 322.359375 581.300781 322.3125 581.085938 322.28125 Z M 586.777344 242.296875 C 587.066406 243.027344 587.355469 243.757812 587.613281 244.550781 C 587.355469 243.773438 587.082031 243.027344 586.777344 242.296875 Z M 580.019531 322.054688 C 580.367188 322.128906 580.71875 322.207031 581.085938 322.28125 C 580.71875 322.207031 580.355469 322.144531 580.003906 322.070312 C 580.019531 322.070312 580.019531 322.054688 580.019531 322.054688 Z M 586.777344 242.296875 C 586.730469 242.1875 586.683594 242.066406 586.636719 241.960938 C 586.636719 241.960938 586.636719 241.960938 586.652344 241.960938 C 586.699219 242.066406 586.730469 242.1875 586.777344 242.296875 Z M 588.40625 247.265625 C 588.179688 246.351562 587.933594 245.453125 587.644531 244.597656 C 587.917969 245.453125 588.179688 246.351562 588.40625 247.265625 Z M 581.695312 322.40625 C 582.382812 322.511719 583.085938 322.617188 583.847656 322.679688 C 583.085938 322.601562 582.382812 322.511719 581.695312 322.40625 Z M 582.015625 311.453125 C 581.679688 314.566406 580.828125 318.636719 580.019531 322.039062 C 570.773438 319.84375 569.464844 313.617188 569.464844 313.617188 C 569.464844 313.617188 565.910156 318.179688 557.792969 322.238281 C 549.679688 326.292969 536.242188 324.265625 529.636719 321.472656 C 523.046875 318.683594 503.765625 310.066406 502.242188 285.964844 C 501.722656 277.851562 500.472656 262.382812 507.824219 261.363281 C 515.175781 260.339844 516.703125 278.855469 516.703125 278.855469 C 516.703125 278.855469 523.292969 269.980469 533.191406 271.246094 L 533.953125 267.949219 C 533.953125 267.949219 528.371094 270.742188 526.84375 266.929688 C 525.320312 263.132812 530.902344 254.496094 539.019531 254.253906 C 539.019531 254.253906 530.902344 243.285156 547.894531 232.640625 C 547.894531 232.640625 548.15625 227.820312 550.6875 227.316406 C 553.21875 226.8125 554.742188 229.847656 554.742188 229.847656 C 554.742188 229.847656 566.65625 228.140625 572.5 229.40625 C 572.5 229.40625 575.289062 224.328125 578.082031 224.84375 C 580.871094 225.347656 580.371094 231.695312 580.371094 231.695312 C 580.371094 231.695312 584 235.628906 586.636719 241.945312 C 583.070312 242.707031 578.90625 243.910156 579.347656 245.390625 C 579.621094 246.304688 583.785156 245.941406 588.421875 247.40625 C 588.53125 247.832031 588.636719 248.242188 588.726562 248.6875 C 589.660156 253.367188 588.925781 256.632812 587.78125 259.5 C 588.378906 257.992188 588.863281 256.375 589.046875 254.496094 C 582.109375 249.144531 574.449219 251.828125 579.851562 254.773438 C 582.703125 256.328125 585.296875 258.875 587.140625 261.011719 C 585.90625 263.742188 584.519531 266.242188 584.167969 269.492188 C 583.40625 276.597656 583.90625 278.367188 582.519531 284.578125 C 581.132812 290.785156 578.082031 306.007812 578.082031 306.007812 C 578.082031 306.007812 578.980469 309.332031 582.015625 311.453125 Z M 622.789062 289.472656 C 619.84375 288.511719 616.183594 288.328125 612.75 289.703125 C 616.183594 288.328125 619.828125 288.496094 622.789062 289.472656 Z M 612.75 289.703125 C 614.261719 291.65625 615.910156 294.09375 617.402344 296.960938 C 616.304688 297.238281 615.191406 297.753906 614.109375 298.65625 C 612.875 299.691406 612.082031 301.203125 611.441406 302.972656 C 608.265625 301.507812 605.308594 300.851562 602.945312 300.5625 C 602.59375 301.386719 602.257812 302.179688 601.9375 302.957031 C 603.265625 299.707031 604.652344 296.078125 608.265625 292.585938 C 609.65625 291.242188 611.179688 290.328125 612.75 289.703125 Z M 609.242188 309.957031 C 609.105469 310.339844 608.96875 310.722656 608.816406 311.101562 C 608.96875 310.722656 609.121094 310.339844 609.242188 309.957031 Z M 608.710938 311.375 C 608.738281 311.285156 608.785156 311.195312 608.816406 311.101562 C 608.785156 311.195312 608.753906 311.285156 608.710938 311.375 Z M 609.242188 309.957031 C 609.273438 309.882812 609.304688 309.804688 609.320312 309.730469 C 609.304688 309.804688 609.273438 309.882812 609.242188 309.957031 Z M 608.207031 312.535156 C 608.175781 312.597656 608.144531 312.65625 608.113281 312.71875 C 608.144531 312.65625 608.175781 312.597656 608.207031 312.535156 Z M 608.710938 311.375 C 608.558594 311.773438 608.375 312.15625 608.191406 312.535156 C 608.390625 312.15625 608.558594 311.757812 608.710938 311.375 Z M 609.777344 308.386719 C 609.640625 308.828125 609.488281 309.285156 609.335938 309.730469 C 609.488281 309.285156 609.640625 308.828125 609.777344 308.386719 Z M 597.804688 309.699219 C 601.25 310.734375 604.53125 312.351562 607.398438 314.078125 C 605.078125 318.027344 601.050781 321.398438 592.847656 322.433594 C 592.527344 318.46875 591.457031 315.296875 590.3125 312.976562 C 590.863281 312.886719 591.425781 312.78125 592.039062 312.613281 C 594.628906 311.925781 596.429688 310.917969 597.804688 309.699219 Z M 608.113281 312.71875 C 607.902344 313.175781 607.65625 313.617188 607.398438 314.0625 C 607.65625 313.617188 607.902344 313.175781 608.113281 312.71875 Z M 607.398438 314.078125 C 607.398438 314.0625 607.398438 314.0625 607.398438 314.078125 C 607.398438 314.0625 607.398438 314.078125 607.398438 314.078125 Z M 86.851562 382.351562 L 88.117188 390.207031 L 70.867188 395.023438 C 70.867188 395.023438 43.730469 400.105469 38.652344 414.550781 C 33.574219 429.007812 27.484375 446 27.484375 446 L 34.839844 449.050781 C 34.320312 450.867188 33.769531 452.957031 33.207031 455.230469 C 25.535156 453.246094 19.859375 446.304688 19.859375 438.023438 C 19.859375 434.714844 18.074219 431.664062 15.191406 430.046875 L 2.332031 422.847656 C 0 421.535156 -0.015625 418.195312 2.289062 416.851562 L 15.285156 409.363281 C 18.105469 407.730469 19.859375 404.710938 19.859375 401.445312 L 19.859375 364.960938 C 19.859375 355.136719 27.820312 347.175781 37.644531 347.175781 L 48.78125 347.175781 C 48.214844 356.96875 53.082031 365.953125 58.664062 370.191406 C 68.089844 377.285156 86.851562 382.351562 86.851562 382.351562 Z M 187.386719 347.175781 C 188.742188 355.671875 190.511719 367.554688 192.082031 378.355469 C 184.535156 371.597656 174.558594 364.625 163.957031 362.582031 C 141.640625 358.265625 129.714844 369.691406 129.714844 369.691406 L 116.320312 379.253906 C 118.226562 377.789062 122.863281 373.546875 122.863281 366.898438 C 122.863281 361.726562 121.125 355.015625 117.527344 347.191406 L 187.386719 347.191406 Z M 187.386719 347.175781 " fill-opacity="1" fill-rule="nonzero"/></g><path fill="#f9c2aa" d="M 683.710938 370.558594 C 679.53125 390.34375 658.984375 404.039062 634.640625 405.183594 C 610.296875 406.328125 606.117188 376.277344 617.527344 348.503906 C 628.933594 320.726562 642.632812 322.632812 642.632812 322.632812 C 681.816406 314.640625 687.902344 350.777344 683.710938 370.558594 Z M 601.175781 416.210938 C 601.175781 416.210938 580.628906 320.34375 579.867188 314.640625 C 579.101562 308.9375 582.152344 297.527344 583.28125 292.585938 C 584.425781 287.644531 582.519531 284.59375 582.519531 284.59375 C 582.519531 284.59375 574.785156 311.851562 557.792969 322.253906 L 557.292969 389.457031 C 557.292969 389.457031 541.320312 320.484375 540.300781 312.367188 C 539.277344 304.253906 532.945312 289.03125 530.660156 285.734375 C 528.371094 282.441406 526.097656 284.714844 526.601562 287.003906 C 527.105469 289.289062 527.105469 289.289062 527.105469 289.289062 C 527.105469 289.289062 515.941406 275.851562 513.164062 273.320312 C 510.371094 270.789062 509.105469 274.84375 509.105469 274.84375 C 509.105469 274.84375 505.308594 273.824219 504.789062 277.378906 C 504.789062 277.378906 502 278.140625 502.257812 281.175781 C 502.257812 281.175781 499.96875 283.203125 500.488281 285.996094 C 500.992188 288.785156 506.574219 303.246094 508.34375 308.050781 C 510.113281 312.871094 518.746094 319.21875 520.011719 326.308594 C 521.277344 333.417969 524.328125 405.429688 526.359375 429.527344 C 528.386719 453.628906 544.113281 463.511719 560.601562 463.253906 C 577.089844 462.992188 650.121094 455.902344 650.121094 455.902344 L 624.757812 410.125 Z M 295.074219 448.792969 L 301.664062 455.382812 L 362.019531 455.382812 L 331.832031 420.636719 C 306.984375 433.082031 295.074219 448.792969 295.074219 448.792969 Z M 461.179688 427.742188 C 461.179688 427.742188 460.675781 423.183594 459.152344 422.160156 C 459.152344 422.160156 458.390625 416.578125 454.835938 417.601562 C 451.28125 418.621094 432.777344 426.21875 432.777344 426.21875 C 432.777344 426.21875 434.304688 417.84375 435.570312 414.304688 C 436.835938 410.75 431.253906 410.75 430.246094 414.046875 C 429.226562 417.339844 423.902344 427.484375 418.835938 435.09375 C 413.757812 442.707031 409.699219 452.085938 409.960938 456.144531 C 409.960938 456.144531 427.761719 456.144531 432.550781 456.144531 C 437.339844 456.144531 441.503906 458.21875 442.847656 461.742188 C 446.476562 455.886719 454.332031 443.453125 456.863281 440.921875 C 459.394531 438.390625 458.390625 434.835938 458.390625 434.835938 C 458.390625 434.835938 461.683594 431.558594 461.179688 427.742188 Z M 459.914062 382.609375 C 459.914062 382.609375 459.410156 378.8125 449.769531 376.78125 C 444.585938 375.683594 431.773438 373.226562 427.960938 372.984375 C 424.160156 372.726562 426.191406 377.804688 426.191406 377.804688 C 426.191406 377.804688 423.140625 379.832031 425.6875 383.632812 C 425.6875 383.632812 422.636719 386.164062 424.921875 390.21875 C 424.921875 390.21875 423.15625 393.773438 424.921875 395.300781 C 426.691406 396.824219 441.65625 404.941406 458.90625 415.585938 C 476.160156 426.234375 486.546875 427.757812 494.417969 424.96875 C 502.273438 422.175781 504.300781 410.765625 500.761719 400.363281 C 497.195312 389.960938 459.914062 382.609375 459.914062 382.609375 Z M 211.882812 340.191406 C 209.320312 334.621094 206.742188 328.535156 207.261719 325.5 C 207.777344 322.464844 210.082031 308.28125 210.339844 303.476562 C 210.601562 298.671875 207 297.144531 202.378906 296.886719 C 197.757812 296.625 186.195312 295.621094 186.195312 295.621094 C 185.417969 292.585938 180.277344 291.5625 177.972656 296.125 C 175.65625 300.683594 174.632812 303.214844 173.855469 307.519531 C 173.078125 311.820312 174.632812 312.582031 174.632812 312.582031 C 174.632812 312.582031 174.375 314.105469 175.914062 316.378906 C 177.457031 318.652344 183.878906 328.78125 185.675781 336.375 C 187.476562 343.972656 196.21875 404.742188 196.21875 404.742188 L 189.414062 424.738281 L 205.949219 448.152344 C 242.082031 451.949219 241.457031 415.375 235.539062 400.945312 C 229.605469 386.515625 214.445312 345.757812 211.882812 340.191406 Z M 143.914062 439.414062 C 138.085938 437.382812 123.125 437.382812 113.484375 443.730469 C 103.84375 450.074219 70.378906 472.128906 70.378906 472.128906 L 72.910156 464.519531 L 34.867188 449.050781 C 30.550781 464.273438 23.460938 497.742188 35.890625 511.695312 C 48.320312 525.636719 69.371094 521.078125 84.074219 506.617188 C 98.78125 492.15625 130.996094 455.640625 130.996094 455.640625 L 162.1875 455.640625 C 162.171875 455.640625 149.757812 441.441406 143.914062 439.414062 Z M 58.710938 370.179688 C 68.089844 377.285156 86.867188 382.351562 86.867188 382.351562 L 88.132812 390.207031 L 70.882812 395.023438 C 70.882812 395.023438 101.3125 409.226562 120.089844 397.558594 C 138.851562 385.890625 129.726562 369.660156 129.726562 369.660156 L 116.335938 379.222656 C 118.242188 377.757812 122.878906 373.519531 122.878906 366.867188 C 122.878906 358.492188 118.320312 346.078125 108.679688 331.359375 C 99.039062 316.65625 75.960938 312.078125 58.96875 327.300781 C 41.976562 342.523438 49.328125 363.085938 58.710938 370.179688 Z M 368.867188 348.882812 L 357.960938 325.304688 C 357.960938 325.304688 365.894531 317.324219 370.636719 305.703125 C 349.96875 283.9375 318.65625 269.15625 313.941406 267.003906 C 313.5 267.78125 313.117188 268.546875 312.8125 269.261719 C 312.8125 269.261719 303.933594 288.542969 300.640625 310.09375 C 297.347656 331.648438 302.667969 339 314.339844 341.546875 C 326.007812 344.078125 333.617188 340.527344 333.617188 340.527344 L 338.699219 354.726562 C 338.699219 354.726562 343.882812 369.75 357.457031 370.453125 C 365.542969 370.863281 371.949219 364.152344 376.066406 358.019531 C 375.792969 354.757812 375.519531 351.597656 375.273438 348.625 Z M 368.867188 348.882812 " fill-opacity="1" fill-rule="nonzero"/><path fill="#220f38" d="M 730.003906 426.234375 C 726.203125 409.5 716.566406 399.859375 698.550781 396.566406 C 680.550781 393.269531 655.949219 401.386719 634.394531 406.96875 C 638.195312 393.027344 656.710938 385.414062 656.710938 385.414062 C 656.710938 385.414062 669.144531 382.363281 672.941406 373.242188 C 676.738281 364.105469 666.59375 360.050781 666.59375 360.050781 L 658.222656 373.242188 C 643.761719 354.480469 641.734375 326.324219 641.734375 326.324219 C 641.734375 326.324219 630.324219 332.671875 622.972656 336.726562 C 625.503906 322.785156 644.019531 316.179688 661.011719 316.945312 C 678.003906 317.707031 692.96875 330.136719 696.003906 348.394531 C 699.054688 366.65625 705.382812 371.214844 720.851562 382.378906 C 736.316406 393.546875 735.328125 413.800781 730.003906 426.234375 Z M 634.136719 362.566406 C 634.136719 363.832031 635.160156 364.855469 636.425781 364.855469 C 637.691406 364.855469 638.710938 363.832031 638.710938 362.566406 C 638.710938 361.300781 637.691406 360.277344 636.425781 360.277344 C 635.160156 360.292969 634.136719 361.316406 634.136719 362.566406 Z M 619.171875 359.027344 C 620.4375 359.027344 621.460938 358.003906 621.460938 356.738281 C 621.460938 355.472656 620.4375 354.453125 619.171875 354.453125 C 617.90625 354.453125 616.886719 355.472656 616.886719 356.738281 C 616.886719 358.003906 617.90625 359.027344 619.171875 359.027344 Z M 617.570312 369.8125 C 617.191406 369.550781 616.929688 369.140625 616.886719 368.667969 C 616.824219 368.210938 616.976562 367.738281 617.296875 367.402344 L 625.089844 358.785156 C 625.382812 358.464844 625.351562 357.960938 625.03125 357.671875 C 624.710938 357.378906 624.207031 357.410156 623.917969 357.730469 L 616.121094 366.347656 C 615.511719 367.035156 615.207031 367.949219 615.3125 368.867188 C 615.421875 369.78125 615.925781 370.605469 616.6875 371.125 L 619.234375 372.878906 C 619.371094 372.96875 619.523438 373.015625 619.675781 373.015625 C 619.921875 373.015625 620.179688 372.894531 620.332031 372.679688 C 620.578125 372.328125 620.484375 371.824219 620.132812 371.582031 Z M 646.140625 353.839844 C 646.292969 354.085938 646.550781 354.222656 646.8125 354.222656 C 646.949219 354.222656 647.085938 354.191406 647.222656 354.117188 C 647.589844 353.886719 647.710938 353.414062 647.5 353.035156 C 642.648438 344.964844 633.953125 348.105469 633.863281 348.136719 C 633.449219 348.289062 633.25 348.746094 633.40625 349.144531 C 633.558594 349.554688 634.015625 349.769531 634.410156 349.601562 C 634.714844 349.511719 641.960938 346.886719 646.140625 353.839844 Z M 620.972656 345.054688 C 621.003906 345.039062 624.527344 343.789062 628.1875 348.59375 C 628.339844 348.792969 628.585938 348.898438 628.8125 348.898438 C 628.980469 348.898438 629.148438 348.855469 629.285156 348.730469 C 629.636719 348.472656 629.699219 347.96875 629.4375 347.632812 C 625.078125 341.914062 620.605469 343.5 620.425781 343.578125 C 620.011719 343.730469 619.8125 344.1875 619.964844 344.582031 C 620.117188 344.996094 620.5625 345.207031 620.972656 345.054688 Z M 636.289062 377.726562 C 636.011719 376.597656 634.882812 375.484375 632.535156 375.746094 C 627.746094 376.25 621.398438 377.253906 621.339844 377.269531 C 620.914062 377.347656 620.621094 377.742188 620.683594 378.171875 C 620.757812 378.597656 621.15625 378.886719 621.582031 378.828125 C 621.644531 378.8125 627.960938 377.804688 632.703125 377.316406 C 633.238281 377.253906 634.546875 377.226562 634.761719 378.109375 C 635.082031 379.453125 633.085938 382.394531 627.777344 384.425781 C 627.363281 384.578125 627.164062 385.035156 627.320312 385.445312 C 627.441406 385.765625 627.730469 385.949219 628.050781 385.949219 C 628.140625 385.949219 628.234375 385.933594 628.324219 385.902344 C 634.289062 383.601562 636.835938 380.046875 636.289062 377.726562 Z M 600.992188 415.449219 L 568.242188 423.015625 L 558.816406 390.753906 C 558.695312 390.34375 558.265625 390.097656 557.839844 390.21875 C 557.429688 390.34375 557.183594 390.785156 557.304688 391.195312 L 566.945312 424.160156 C 567.054688 424.496094 567.359375 424.722656 567.695312 424.722656 C 567.753906 424.722656 567.816406 424.722656 567.875 424.707031 L 601.359375 416.976562 C 601.785156 416.882812 602.042969 416.457031 601.953125 416.027344 C 601.859375 415.601562 601.417969 415.34375 600.992188 415.449219 Z M 510.816406 275.699219 C 510.601562 275.316406 510.113281 275.179688 509.746094 275.410156 C 509.367188 275.625 509.242188 276.113281 509.457031 276.476562 L 517.832031 291.179688 C 517.96875 291.441406 518.242188 291.578125 518.515625 291.578125 C 518.65625 291.578125 518.777344 291.546875 518.914062 291.472656 C 519.296875 291.257812 519.417969 290.769531 519.203125 290.402344 Z M 506.269531 278.550781 C 506.085938 278.15625 505.613281 277.988281 505.230469 278.15625 C 504.835938 278.339844 504.652344 278.796875 504.835938 279.191406 L 512.1875 295.421875 C 512.324219 295.710938 512.597656 295.878906 512.902344 295.878906 C 513.011719 295.878906 513.117188 295.863281 513.222656 295.804688 C 513.621094 295.621094 513.789062 295.164062 513.621094 294.765625 Z M 503.765625 282.425781 C 503.613281 282.015625 503.171875 281.800781 502.761719 281.953125 C 502.347656 282.105469 502.136719 282.546875 502.289062 282.960938 L 507.871094 298.425781 C 507.992188 298.746094 508.28125 298.945312 508.617188 298.945312 C 508.710938 298.945312 508.800781 298.929688 508.890625 298.898438 C 509.304688 298.746094 509.519531 298.304688 509.367188 297.894531 Z M 529.226562 290.28125 C 528.933594 289.945312 528.445312 289.914062 528.113281 290.207031 C 527.792969 290.496094 527.746094 290.984375 528.035156 291.320312 C 528.066406 291.363281 531.558594 295.359375 533.265625 298.304688 C 533.417969 298.546875 533.679688 298.703125 533.953125 298.703125 C 534.089844 298.703125 534.226562 298.671875 534.351562 298.59375 C 534.730469 298.382812 534.855469 297.894531 534.640625 297.511719 C 532.855469 294.429688 529.378906 290.449219 529.226562 290.28125 Z M 368.867188 348.882812 L 369.171875 348.871094 C 368.988281 348.871094 368.867188 348.882812 368.867188 348.882812 Z M 376.066406 358.003906 C 371.949219 364.136719 365.542969 370.847656 357.457031 370.4375 C 343.882812 369.734375 338.699219 354.710938 338.699219 354.710938 L 336.636719 348.945312 C 324.757812 348.640625 311.257812 348.382812 297.605469 351.660156 C 278.585938 356.222656 263.621094 366.121094 262.097656 381.082031 C 260.570312 396.046875 267.417969 414.808594 274.269531 428.003906 C 281.117188 441.195312 291.761719 453.871094 291.761719 453.871094 C 291.761719 453.871094 302.410156 437.140625 331.832031 420.652344 C 335.328125 424.84375 338.851562 429.191406 341.976562 433.082031 C 343.960938 431.238281 371.171875 405.886719 375.078125 394.398438 C 378.585938 384.089844 376.800781 366.625 375.59375 352.394531 C 375.746094 354.222656 375.898438 356.082031 376.066406 358.003906 Z M 427.699219 323.640625 C 427.699219 322.175781 426.511719 320.972656 425.03125 320.972656 C 423.566406 320.972656 422.359375 322.160156 422.359375 323.640625 C 422.359375 325.105469 423.550781 326.308594 425.03125 326.308594 C 426.511719 326.308594 427.699219 325.121094 427.699219 323.640625 Z M 466.777344 316.378906 C 466.273438 315.160156 465.742188 313.894531 465.175781 312.535156 C 461.867188 304.679688 455.996094 303.566406 451.371094 306.527344 C 450.945312 307.808594 451.050781 309.316406 452.5625 310.828125 C 455.09375 313.390625 462.292969 315.359375 466.777344 316.378906 Z M 396.277344 322.753906 C 396.277344 322.3125 395.925781 321.960938 395.484375 321.960938 C 395.042969 321.960938 394.691406 322.3125 394.691406 322.753906 C 394.691406 323.046875 394.796875 323.703125 395.058594 325.289062 C 398.796875 348.335938 397.667969 361.054688 391.671875 363.085938 C 389.613281 363.785156 387.707031 363.632812 385.816406 362.644531 C 379.347656 359.226562 375.945312 347.085938 375.914062 346.960938 C 375.792969 346.535156 375.367188 346.304688 374.9375 346.414062 C 374.527344 346.535156 374.269531 346.960938 374.390625 347.375 C 374.527344 347.894531 378.003906 360.292969 385.066406 364.03125 C 386.410156 364.734375 387.78125 365.097656 389.199219 365.097656 C 390.175781 365.097656 391.183594 364.929688 392.175781 364.578125 C 402.457031 361.070312 398.046875 333.953125 396.597656 325.027344 C 396.445312 323.976562 396.277344 322.953125 396.277344 322.753906 Z M 435.3125 358.539062 C 435.523438 358.539062 435.753906 358.449219 435.90625 358.28125 C 435.921875 358.265625 437.523438 356.480469 439.703125 356.265625 C 439.964844 356.238281 440.359375 356.222656 440.847656 356.191406 C 445.316406 355.917969 457.183594 355.199219 463.179688 348.257812 C 463.46875 347.921875 463.421875 347.433594 463.101562 347.144531 C 462.765625 346.855469 462.277344 346.902344 461.988281 347.222656 C 456.421875 353.660156 445.042969 354.34375 440.757812 354.605469 C 440.238281 354.636719 439.824219 354.664062 439.550781 354.695312 C 436.746094 354.96875 434.808594 357.152344 434.730469 357.242188 C 434.441406 357.5625 434.472656 358.066406 434.808594 358.355469 C 434.945312 358.480469 435.128906 358.539062 435.3125 358.539062 Z M 428.265625 378.8125 L 448.046875 383.890625 C 448.109375 383.90625 448.183594 383.921875 448.246094 383.921875 C 448.597656 383.921875 448.917969 383.675781 449.007812 383.324219 C 449.117188 382.898438 448.855469 382.472656 448.445312 382.363281 L 428.660156 377.285156 C 428.25 377.179688 427.804688 377.4375 427.699219 377.851562 C 427.59375 378.261719 427.851562 378.703125 428.265625 378.8125 Z M 448.246094 390.480469 L 427.699219 383.632812 C 427.289062 383.492188 426.84375 383.722656 426.707031 384.132812 C 426.570312 384.546875 426.800781 384.988281 427.210938 385.125 L 447.757812 391.976562 C 447.835938 392.003906 447.925781 392.019531 448 392.019531 C 448.335938 392.019531 448.640625 391.808594 448.75 391.488281 C 448.871094 391.074219 448.65625 390.617188 448.246094 390.480469 Z M 447.484375 400.898438 C 447.789062 400.898438 448.078125 400.714844 448.199219 400.425781 C 448.367188 400.027344 448.183594 399.554688 447.789062 399.386719 L 427 390.511719 C 426.601562 390.34375 426.128906 390.527344 425.960938 390.921875 C 425.792969 391.320312 425.976562 391.792969 426.371094 391.960938 L 447.164062 400.835938 C 447.269531 400.867188 447.375 400.898438 447.484375 400.898438 Z M 474.144531 386.925781 L 461.714844 390.480469 C 461.621094 390.511719 461.5625 390.554688 461.484375 390.601562 C 461.316406 388.40625 461.074219 386.222656 460.660156 384.242188 C 460.570312 383.8125 460.144531 383.539062 459.730469 383.617188 C 459.304688 383.707031 459.03125 384.121094 459.105469 384.546875 C 460.84375 393.210938 459.867188 406.265625 459.855469 406.390625 C 459.824219 406.816406 460.144531 407.199219 460.570312 407.226562 C 460.585938 407.226562 460.617188 407.226562 460.632812 407.226562 C 461.042969 407.226562 461.378906 406.90625 461.410156 406.496094 C 461.441406 406.097656 461.957031 399.097656 461.546875 391.882812 C 461.652344 391.945312 461.777344 392.003906 461.898438 392.003906 C 461.972656 392.003906 462.035156 391.988281 462.109375 391.976562 L 474.542969 388.421875 C 474.953125 388.296875 475.199219 387.871094 475.078125 387.445312 C 475 387.046875 474.574219 386.804688 474.144531 386.925781 Z M 341.734375 310.582031 C 343.503906 310.582031 356.4375 300.699219 356.4375 300.699219 C 356.4375 300.699219 363.285156 303.996094 361.515625 310.339844 C 359.746094 316.683594 353.90625 320.484375 353.90625 320.484375 L 357.960938 325.304688 C 357.960938 325.304688 368.363281 316.425781 371.902344 307.042969 C 371.902344 307.042969 367.082031 300.957031 358.96875 294.492188 C 350.855469 288.023438 343.503906 283.707031 343.503906 283.707031 C 343.503906 283.707031 339.949219 310.582031 341.734375 310.582031 Z M 326.511719 299.617188 C 326.511719 298.5625 325.65625 297.710938 324.601562 297.710938 C 323.550781 297.710938 322.695312 298.5625 322.695312 299.617188 C 322.695312 300.667969 323.550781 301.523438 324.601562 301.523438 C 325.65625 301.523438 326.511719 300.667969 326.511719 299.617188 Z M 307.109375 298.855469 C 308.160156 298.855469 309.015625 298 309.015625 296.945312 C 309.015625 295.894531 308.160156 295.039062 307.109375 295.039062 C 306.054688 295.039062 305.203125 295.894531 305.203125 296.945312 C 305.214844 298 306.054688 298.855469 307.109375 298.855469 Z M 310.9375 312.933594 C 310.996094 312.949219 311.058594 312.949219 311.105469 312.949219 C 311.46875 312.949219 311.789062 312.703125 311.867188 312.335938 C 311.957031 311.910156 311.699219 311.5 311.273438 311.390625 C 308.558594 310.78125 306.4375 309.515625 305.996094 308.25 C 305.796875 307.699219 305.933594 307.152344 306.390625 306.558594 C 308.480469 303.886719 313.621094 297.238281 313.621094 297.238281 L 312.371094 296.277344 C 312.371094 296.277344 307.246094 302.925781 305.140625 305.597656 C 304.132812 306.878906 304.226562 308.035156 304.5 308.785156 C 305.171875 310.613281 307.566406 312.171875 310.9375 312.933594 Z M 335.160156 292.402344 C 335.3125 292.628906 335.554688 292.769531 335.816406 292.769531 C 335.96875 292.769531 336.105469 292.722656 336.242188 292.644531 C 336.609375 292.417969 336.714844 291.929688 336.484375 291.5625 C 331.863281 284.332031 322.820312 286.117188 322.726562 286.132812 C 322.300781 286.222656 322.027344 286.636719 322.117188 287.0625 C 322.207031 287.492188 322.621094 287.765625 323.046875 287.671875 C 323.367188 287.597656 331.117188 286.101562 335.160156 292.402344 Z M 309.074219 283.433594 C 309.121094 283.417969 313.070312 282.152344 315.191406 285.566406 C 315.34375 285.8125 315.605469 285.933594 315.863281 285.933594 C 316 285.933594 316.152344 285.902344 316.273438 285.8125 C 316.640625 285.582031 316.761719 285.09375 316.535156 284.730469 C 314.324219 281.144531 310.355469 281.328125 308.574219 281.921875 C 308.160156 282.058594 307.933594 282.503906 308.070312 282.914062 C 308.222656 283.355469 308.664062 283.570312 309.074219 283.433594 Z M 317.144531 325.652344 C 316.71875 325.683594 316.382812 326.050781 316.398438 326.476562 C 316.425781 326.890625 316.761719 327.226562 317.175781 327.226562 C 317.191406 327.226562 317.207031 327.226562 317.222656 327.226562 C 320.910156 327.027344 325.105469 323.824219 326.921875 321.613281 C 328.125 320.132812 328.753906 317.644531 327.667969 316.179688 C 327.027344 315.328125 325.625 314.566406 322.589844 315.816406 C 317.328125 317.996094 312.339844 317.660156 312.292969 317.660156 C 311.867188 317.628906 311.484375 317.949219 311.457031 318.394531 C 311.425781 318.820312 311.746094 319.203125 312.1875 319.230469 C 312.402344 319.246094 317.570312 319.597656 323.199219 317.28125 C 324.816406 316.609375 325.992188 316.546875 326.417969 317.128906 C 326.9375 317.828125 326.585938 319.550781 325.71875 320.621094 C 324.128906 322.542969 320.316406 325.472656 317.144531 325.652344 Z M 355.140625 313.359375 C 355.277344 313.464844 355.445312 313.527344 355.613281 313.527344 C 355.855469 313.527344 356.085938 313.421875 356.238281 313.222656 C 358.480469 310.292969 357.230469 306.96875 356.253906 305.625 C 355.996094 305.277344 355.507812 305.199219 355.15625 305.441406 C 354.804688 305.703125 354.726562 306.191406 354.972656 306.542969 C 355.0625 306.664062 357.0625 309.546875 354.988281 312.261719 C 354.726562 312.613281 354.789062 313.101562 355.140625 313.359375 Z M 344.585938 336.132812 C 343.441406 334.042969 340.589844 335.566406 333.417969 340.695312 L 336.148438 348.351562 C 339.949219 344.019531 345.332031 337.503906 344.585938 336.132812 Z M 458.085938 420.253906 C 457.902344 419.859375 457.429688 419.691406 457.03125 419.871094 L 443.714844 426.140625 C 443.320312 426.324219 443.152344 426.796875 443.335938 427.195312 C 443.472656 427.484375 443.746094 427.652344 444.050781 427.652344 C 444.15625 427.652344 444.28125 427.621094 444.386719 427.574219 L 457.703125 421.304688 C 458.097656 421.109375 458.265625 420.636719 458.085938 420.253906 Z M 458.800781 424.328125 L 445.867188 434.027344 C 445.515625 434.285156 445.453125 434.773438 445.714844 435.125 C 445.867188 435.339844 446.109375 435.445312 446.339844 435.445312 C 446.507812 435.445312 446.675781 435.402344 446.8125 435.292969 L 459.746094 425.59375 C 460.097656 425.332031 460.160156 424.84375 459.898438 424.496094 C 459.640625 424.144531 459.152344 424.066406 458.800781 424.328125 Z M 458.390625 432.152344 L 446.980469 441.472656 C 446.644531 441.746094 446.597656 442.25 446.871094 442.585938 C 447.027344 442.769531 447.253906 442.875 447.484375 442.875 C 447.652344 442.875 447.835938 442.8125 447.988281 442.691406 L 459.394531 433.371094 C 459.730469 433.097656 459.777344 432.59375 459.503906 432.257812 C 459.226562 431.921875 458.726562 431.878906 458.390625 432.152344 Z M 171.933594 399.632812 C 171.675781 399.28125 171.1875 399.203125 170.835938 399.464844 C 170.484375 399.722656 170.410156 400.210938 170.667969 400.5625 L 187.660156 423.382812 C 187.8125 423.59375 188.058594 423.703125 188.285156 423.703125 C 188.453125 423.703125 188.621094 423.65625 188.757812 423.546875 C 189.109375 423.289062 189.183594 422.800781 188.925781 422.449219 Z M 196.292969 406.679688 C 195.867188 406.738281 195.578125 407.152344 195.636719 407.578125 L 198.167969 424.066406 C 198.230469 424.464844 198.566406 424.738281 198.949219 424.738281 C 198.992188 424.738281 199.023438 424.738281 199.070312 424.722656 C 199.496094 424.664062 199.785156 424.25 199.726562 423.824219 L 197.195312 407.335938 C 197.132812 406.90625 196.71875 406.617188 196.292969 406.679688 Z M 206.542969 302.941406 C 207.199219 303.660156 207.414062 304.941406 207.214844 307.105469 C 206.957031 310.035156 206.175781 312.871094 202.164062 313.773438 C 199.40625 314.382812 191.519531 315.707031 188.363281 316.226562 L 191.519531 318.300781 C 191.886719 318.546875 191.976562 319.035156 191.746094 319.382812 C 191.59375 319.613281 191.351562 319.734375 191.09375 319.734375 C 190.941406 319.734375 190.785156 319.691406 190.664062 319.597656 L 181.023438 313.253906 C 180.78125 313.085938 180.644531 312.796875 180.675781 312.492188 C 180.703125 312.183594 180.917969 311.941406 181.191406 311.851562 C 181.191406 311.851562 185.25 310.460938 187.019531 309.820312 C 187.738281 309.5625 188.300781 308.660156 188.195312 308.160156 C 188.117188 307.808594 187.523438 307.777344 187.1875 307.792969 C 184.441406 307.914062 180.507812 308.265625 180.15625 308.296875 C 180.019531 308.585938 179.882812 308.859375 179.742188 309.132812 C 177.945312 312.75 176.203125 313.132812 175.5625 313.132812 C 175.472656 313.132812 175.410156 313.132812 175.367188 313.117188 C 174.9375 313.054688 174.648438 312.644531 174.710938 312.214844 C 174.769531 311.804688 175.136719 311.515625 175.5625 311.542969 C 175.65625 311.542969 176.84375 311.40625 178.339844 308.433594 C 180.214844 304.679688 182.734375 299.128906 182.765625 299.082031 C 182.765625 299.066406 182.777344 299.066406 182.777344 299.050781 C 183.574219 296.945312 184.578125 295.679688 184.640625 295.605469 C 184.914062 295.269531 185.417969 295.222656 185.753906 295.5 C 186.089844 295.773438 186.136719 296.277344 185.859375 296.613281 C 185.84375 296.640625 183.984375 298.945312 183.496094 302.558594 C 183.191406 304.878906 183.328125 305.992188 183.433594 306.464844 C 184.640625 306.375 185.980469 306.28125 187.125 306.238281 C 187.738281 306.207031 188.195312 306.3125 188.558594 306.464844 C 188.253906 301.585938 189.566406 297.40625 189.644531 297.144531 C 189.78125 296.734375 190.222656 296.503906 190.632812 296.640625 C 191.046875 296.78125 191.273438 297.222656 191.136719 297.632812 C 191.105469 297.726562 188.253906 306.769531 192.082031 313.359375 C 192.207031 313.558594 192.207031 313.785156 192.144531 313.984375 C 193.945312 313.679688 195.914062 313.34375 197.679688 313.023438 C 194.15625 305.855469 198.566406 298.335938 198.765625 298.015625 C 198.992188 297.648438 199.464844 297.527344 199.847656 297.742188 C 200.214844 297.96875 200.335938 298.441406 200.121094 298.824219 C 200.078125 298.898438 195.789062 306.222656 199.296875 312.734375 C 200.320312 312.535156 201.203125 312.367188 201.816406 312.230469 C 204.683594 311.589844 205.398438 309.820312 205.644531 306.96875 C 205.828125 304.847656 205.550781 304.207031 205.367188 304.007812 C 205.339844 303.980469 205.292969 303.917969 205.140625 303.902344 C 204.757812 304.316406 204.195312 306.191406 203.90625 308.050781 C 203.84375 308.480469 203.433594 308.785156 203.003906 308.707031 C 202.578125 308.644531 202.289062 308.234375 202.347656 307.808594 C 202.929688 304.175781 203.828125 302.332031 205.035156 302.332031 C 205.660156 302.316406 206.164062 302.53125 206.542969 302.941406 Z M 180.964844 306.679688 C 181.222656 306.664062 181.527344 306.632812 181.863281 306.601562 C 181.789062 306.222656 181.742188 305.71875 181.742188 305.046875 C 181.484375 305.582031 181.222656 306.128906 180.964844 306.679688 Z M 186.484375 314.992188 C 186.578125 314.945312 186.667969 314.898438 186.777344 314.886719 C 186.820312 314.886719 188.515625 314.59375 190.785156 314.214844 C 190.773438 314.183594 190.742188 314.183594 190.726562 314.152344 C 189.980469 312.855469 189.460938 311.5 189.109375 310.125 C 188.710938 310.660156 188.179688 311.101562 187.554688 311.316406 C 186.46875 311.695312 184.5625 312.367188 183.222656 312.824219 Z M 95.226562 382.105469 C 95.226562 382.105469 104.363281 389.214844 115.511719 379.816406 C 105.628906 383.113281 95.226562 382.105469 95.226562 382.105469 Z M 33.328125 454.894531 L 66.976562 462.109375 L 34.867188 449.050781 C 34.378906 450.777344 33.847656 452.757812 33.328125 454.894531 Z M 114.246094 340.511719 C 114.246094 340.511719 118.042969 334.425781 112.980469 325.546875 C 107.902344 316.667969 87.109375 308.554688 62.003906 318.957031 C 36.898438 329.359375 42.480469 367.402344 48.0625 387.171875 C 53.644531 406.953125 86.867188 404.664062 89.660156 387.171875 C 92.433594 369.675781 70.621094 347.863281 70.621094 347.863281 C 80.507812 335.1875 80.507812 318.957031 80.507812 318.957031 L 103.082031 325.546875 C 103.082031 325.546875 104.101562 326.554688 105.980469 328.964844 C 99.863281 326.539062 96.84375 332.226562 96.8125 332.289062 C 96.613281 332.671875 96.765625 333.144531 97.148438 333.339844 C 97.269531 333.402344 97.390625 333.433594 97.515625 333.433594 C 97.804688 333.433594 98.078125 333.28125 98.214844 333.003906 C 98.320312 332.808594 100.746094 328.261719 105.8125 330.566406 C 106.207031 330.75 106.679688 330.566406 106.847656 330.167969 C 106.863281 330.152344 106.847656 330.121094 106.863281 330.109375 C 109.105469 333.113281 112.25 337.734375 116.152344 344.550781 C 124.269531 358.753906 123.382812 369.917969 115.511719 379.800781 C 127.683594 379.039062 136.300781 364.578125 132 354.4375 C 127.683594 344.308594 114.246094 340.511719 114.246094 340.511719 Z M 95.699219 346 C 95.851562 345.589844 95.652344 345.148438 95.257812 344.980469 C 93.546875 344.308594 92.023438 344.292969 90.742188 344.933594 C 88.773438 345.910156 88.148438 348.074219 88.132812 348.167969 C 88.011719 348.578125 88.253906 349.023438 88.683594 349.128906 C 88.757812 349.144531 88.820312 349.160156 88.894531 349.160156 C 89.230469 349.160156 89.550781 348.929688 89.660156 348.59375 C 89.660156 348.578125 90.132812 346.992188 91.472656 346.335938 C 92.34375 345.910156 93.425781 345.941406 94.707031 346.445312 C 95.089844 346.597656 95.546875 346.398438 95.699219 346 Z M 105.109375 341.929688 C 105.414062 341.929688 105.6875 341.761719 105.828125 341.472656 C 105.84375 341.457031 106.621094 339.808594 108.128906 339.320312 C 109.015625 339.03125 109.992188 339.199219 111.074219 339.792969 C 111.457031 340.007812 111.929688 339.871094 112.140625 339.488281 C 112.355469 339.105469 112.21875 338.632812 111.835938 338.421875 C 110.355469 337.597656 108.9375 337.382812 107.625 337.824219 C 105.460938 338.527344 104.4375 340.722656 104.394531 340.816406 C 104.210938 341.210938 104.394531 341.667969 104.773438 341.851562 C 104.894531 341.914062 105.003906 341.929688 105.109375 341.929688 Z M 98.71875 340.890625 C 98.503906 341.273438 98.65625 341.746094 99.039062 341.960938 C 99.101562 341.988281 104.851562 345.132812 106.957031 346.597656 C 107.183594 346.765625 107.304688 346.960938 107.335938 347.238281 C 107.472656 348.289062 106.375 350.042969 105.660156 350.898438 C 105.382812 351.234375 105.429688 351.722656 105.75 352.011719 C 105.902344 352.132812 106.070312 352.195312 106.253906 352.195312 C 106.484375 352.195312 106.695312 352.101562 106.863281 351.917969 C 107.09375 351.644531 109.167969 349.113281 108.894531 347.039062 C 108.800781 346.320312 108.433594 345.726562 107.855469 345.316406 C 105.6875 343.789062 100.03125 340.707031 99.785156 340.570312 C 99.40625 340.375 98.933594 340.511719 98.71875 340.890625 Z M 99.117188 361.027344 C 99.269531 361.085938 101.480469 361.941406 104.484375 361.941406 C 106.300781 361.941406 108.417969 361.621094 110.507812 360.628906 C 110.90625 360.445312 111.074219 359.972656 110.875 359.578125 C 110.691406 359.179688 110.21875 359.011719 109.824219 359.210938 C 104.882812 361.558594 99.726562 359.59375 99.664062 359.5625 C 99.253906 359.410156 98.808594 359.605469 98.640625 360.003906 C 98.519531 360.402344 98.71875 360.859375 99.117188 361.027344 Z M 90.039062 336.179688 C 90.101562 335.75 89.796875 335.355469 89.367188 335.292969 C 79.957031 334.058594 78.476562 342.707031 78.476562 342.796875 C 78.417969 343.226562 78.707031 343.636719 79.132812 343.699219 C 79.179688 343.699219 79.210938 343.714844 79.253906 343.714844 C 79.636719 343.714844 79.972656 343.4375 80.035156 343.042969 C 80.078125 342.753906 81.285156 335.8125 89.171875 336.851562 C 89.597656 336.910156 89.992188 336.605469 90.039062 336.179688 Z M 208.800781 243.210938 C 207.839844 243.210938 207.0625 243.988281 207.0625 244.949219 C 207.0625 245.910156 207.839844 246.6875 208.800781 246.6875 C 209.761719 246.6875 210.539062 245.910156 210.539062 244.949219 C 210.539062 243.988281 209.761719 243.210938 208.800781 243.210938 Z M 193.578125 273.136719 C 199.359375 260.78125 188.378906 252.226562 188.269531 252.148438 C 187.917969 251.890625 187.429688 251.949219 187.171875 252.300781 C 186.914062 252.652344 186.972656 253.140625 187.324219 253.398438 C 187.429688 253.476562 197.40625 261.253906 192.160156 272.480469 C 186.929688 283.660156 163.300781 287.476562 144.464844 280.199219 C 144.066406 280.046875 143.609375 280.246094 143.441406 280.65625 C 143.289062 281.070312 143.488281 281.511719 143.898438 281.679688 C 150.746094 284.332031 158.113281 285.566406 165.054688 285.566406 C 178.234375 285.539062 189.871094 281.039062 193.578125 273.136719 Z M 568.257812 245.605469 C 569.308594 245.605469 570.164062 244.75 570.164062 243.699219 C 570.164062 242.644531 569.308594 241.792969 568.257812 241.792969 C 567.207031 241.792969 566.351562 242.644531 566.351562 243.699219 C 566.367188 244.75 567.207031 245.605469 568.257812 245.605469 Z M 549.4375 245.222656 C 550.488281 245.222656 551.34375 244.371094 551.34375 243.316406 C 551.34375 242.265625 550.488281 241.410156 549.4375 241.410156 C 548.382812 241.410156 547.527344 242.265625 547.527344 243.316406 C 547.527344 244.371094 548.382812 245.222656 549.4375 245.222656 Z M 553.371094 250.761719 C 553.507812 250.851562 553.660156 250.882812 553.796875 250.882812 C 554.058594 250.882812 554.300781 250.761719 554.453125 250.53125 C 554.972656 249.722656 555.855469 249.328125 556.34375 249.144531 C 556.742188 249.539062 557.289062 250.195312 557.382812 250.851562 C 557.445312 251.25 557.777344 251.523438 558.160156 251.523438 C 558.207031 251.523438 558.238281 251.523438 558.265625 251.507812 C 558.695312 251.445312 559 251.050781 558.9375 250.625 C 558.769531 249.464844 557.945312 248.503906 557.429688 248 L 557.945312 246.046875 L 558.417969 245.46875 C 558.785156 245.023438 558.527344 244.339844 557.945312 244.261719 C 557.457031 244.203125 556.863281 244.171875 556.222656 244.230469 C 555.660156 244.292969 555.382812 244.980469 555.734375 245.421875 L 556.285156 246.125 L 555.886719 247.632812 C 555.203125 247.863281 553.921875 248.441406 553.113281 249.675781 C 552.914062 250.027344 553.019531 250.515625 553.371094 250.761719 Z M 533.96875 268.757812 C 534.074219 268.757812 534.183594 268.742188 534.289062 268.699219 C 534.425781 268.636719 537.78125 267.128906 540.894531 263.617188 C 541.183594 263.296875 541.152344 262.796875 540.832031 262.503906 C 540.511719 262.214844 540.007812 262.246094 539.71875 262.566406 C 536.835938 265.816406 533.679688 267.234375 533.648438 267.25 C 533.25 267.433594 533.070312 267.890625 533.25 268.285156 C 533.375 268.589844 533.664062 268.757812 533.96875 268.757812 Z M 539.125 255.0625 C 539.261719 255.046875 542.527344 254.726562 544.523438 259.226562 C 544.660156 259.515625 544.9375 259.699219 545.242188 259.699219 C 545.347656 259.699219 545.453125 259.683594 545.5625 259.636719 C 545.957031 259.453125 546.140625 258.996094 545.957031 258.601562 C 543.472656 252.988281 539.109375 253.492188 538.925781 253.507812 C 538.5 253.566406 538.195312 253.949219 538.253906 254.375 C 538.300781 254.800781 538.710938 255.109375 539.125 255.0625 Z M 555.933594 265.359375 C 554.773438 267.617188 554.742188 269.613281 555.855469 271 C 556.496094 271.808594 557.550781 272.542969 559.257812 272.542969 C 560.328125 272.542969 561.636719 272.253906 563.269531 271.503906 C 565.621094 270.4375 567.542969 268.898438 567.617188 268.835938 C 567.953125 268.5625 568.015625 268.074219 567.738281 267.722656 C 567.464844 267.386719 566.976562 267.324219 566.625 267.601562 C 566.609375 267.617188 564.78125 269.078125 562.597656 270.070312 C 559.945312 271.292969 558.085938 271.277344 557.078125 270.011719 C 556.132812 268.820312 556.816406 267.035156 557.320312 266.058594 C 559.199219 262.398438 564.261719 258.480469 568.59375 258.722656 C 574.710938 259.058594 576.023438 268.410156 576.039062 268.5 C 576.097656 268.925781 576.511719 269.230469 576.921875 269.171875 C 577.347656 269.109375 577.652344 268.714844 577.59375 268.285156 C 577.53125 267.84375 576.097656 257.546875 568.667969 257.136719 C 563.726562 256.890625 558.085938 261.179688 555.933594 265.359375 Z M 572.238281 283.753906 C 572.621094 283.964844 573.09375 283.84375 573.308594 283.464844 C 573.519531 283.082031 573.398438 282.609375 573.015625 282.378906 C 561.46875 275.714844 551.570312 283.433594 548.488281 286.300781 L 548.488281 273.746094 C 548.488281 270.5 546.15625 268.667969 543.835938 268.269531 C 541.273438 267.828125 538.132812 269.050781 536.882812 272.726562 C 534.808594 278.78125 532.320312 289.046875 532.292969 289.152344 C 532.183594 289.578125 532.445312 290.007812 532.871094 290.097656 C 533.296875 290.207031 533.726562 289.929688 533.816406 289.519531 C 533.847656 289.414062 536.300781 279.207031 538.363281 273.230469 C 539.382812 270.238281 541.808594 269.523438 543.578125 269.8125 C 545.117188 270.070312 546.917969 271.246094 546.917969 273.730469 L 546.917969 294.660156 C 546.917969 295.101562 547.269531 295.453125 547.710938 295.453125 C 548.15625 295.453125 548.503906 295.101562 548.503906 294.660156 L 548.503906 288.464844 C 548.566406 288.421875 548.640625 288.390625 548.6875 288.328125 C 549.128906 287.855469 559.472656 276.371094 572.238281 283.753906 Z M 320.804688 263.285156 L 337.917969 272.421875 C 337.917969 272.421875 340.589844 248.839844 320.804688 263.285156 Z M 320.804688 263.285156 " fill-opacity="1" fill-rule="nonzero"/></svg>